<svg xmlns="http://www.w3.org/2000/svg" xmlns:xlink="http://www.w3.org/1999/xlink" width="500" zoomAndPan="magnify" viewBox="0 0 375 374.999991" height="500" preserveAspectRatio="xMidYMid meet" version="1.0"><defs><clipPath id="4eeccfd219"><path d="M 43 81 L 341 81 L 341 147 L 43 147 Z M 43 81 " clip-rule="nonzero"/></clipPath><clipPath id="13b8c0018c"><path d="M -14.355469 87.804688 L 374.195312 64.460938 L 387.507812 286.0625 L -1.042969 309.40625 Z M -14.355469 87.804688 " clip-rule="nonzero"/></clipPath><clipPath id="cdd0038800"><path d="M -14.355469 87.804688 L 374.195312 64.460938 L 387.507812 286.0625 L -1.042969 309.40625 Z M -14.355469 87.804688 " clip-rule="nonzero"/></clipPath><clipPath id="cec5ddc941"><path d="M 42 79 L 343 79 L 343 149 L 42 149 Z M 42 79 " clip-rule="nonzero"/></clipPath><clipPath id="95c556c81d"><path d="M -14.355469 87.804688 L 374.195312 64.460938 L 387.507812 286.0625 L -1.042969 309.40625 Z M -14.355469 87.804688 " clip-rule="nonzero"/></clipPath><clipPath id="eac59051c5"><path d="M -14.355469 87.804688 L 374.195312 64.460938 L 387.507812 286.0625 L -1.042969 309.40625 Z M -14.355469 87.804688 " clip-rule="nonzero"/></clipPath><clipPath id="ee0d08e677"><path d="M 41 133 L 284 133 L 284 177 L 41 177 Z M 41 133 " clip-rule="nonzero"/></clipPath><clipPath id="8d55f0a50d"><path d="M -14.355469 87.804688 L 374.195312 64.460938 L 387.507812 286.0625 L -1.042969 309.40625 Z M -14.355469 87.804688 " clip-rule="nonzero"/></clipPath><clipPath id="a3fe27ab53"><path d="M -14.355469 87.804688 L 374.195312 64.460938 L 387.507812 286.0625 L -1.042969 309.40625 Z M -14.355469 87.804688 " clip-rule="nonzero"/></clipPath><clipPath id="ac3dca58f0"><path d="M 39 132 L 285 132 L 285 178 L 39 178 Z M 39 132 " clip-rule="nonzero"/></clipPath><clipPath id="2611bcfc24"><path d="M -14.355469 87.804688 L 374.195312 64.460938 L 387.507812 286.0625 L -1.042969 309.40625 Z M -14.355469 87.804688 " clip-rule="nonzero"/></clipPath><clipPath id="dcfa430e66"><path d="M -14.355469 87.804688 L 374.195312 64.460938 L 387.507812 286.0625 L -1.042969 309.40625 Z M -14.355469 87.804688 " clip-rule="nonzero"/></clipPath><clipPath id="834bb489eb"><path d="M 243 144 L 264 144 L 264 176 L 243 176 Z M 243 144 " clip-rule="nonzero"/></clipPath><clipPath id="5a9a796ad0"><path d="M -14.355469 87.804688 L 374.195312 64.460938 L 387.507812 286.0625 L -1.042969 309.40625 Z M -14.355469 87.804688 " clip-rule="nonzero"/></clipPath><clipPath id="bc44697076"><path d="M -14.355469 87.804688 L 374.195312 64.460938 L 387.507812 286.0625 L -1.042969 309.40625 Z M -14.355469 87.804688 " clip-rule="nonzero"/></clipPath><clipPath id="b6ee04937a"><path d="M 242 143 L 266 143 L 266 178 L 242 178 Z M 242 143 " clip-rule="nonzero"/></clipPath><clipPath id="ede0aae4b1"><path d="M -14.355469 87.804688 L 374.195312 64.460938 L 387.507812 286.0625 L -1.042969 309.40625 Z M -14.355469 87.804688 " clip-rule="nonzero"/></clipPath><clipPath id="6749a38fd5"><path d="M -14.355469 87.804688 L 374.195312 64.460938 L 387.507812 286.0625 L -1.042969 309.40625 Z M -14.355469 87.804688 " clip-rule="nonzero"/></clipPath><clipPath id="6b6d5b810e"><path d="M 183 139 L 205 139 L 205 174 L 183 174 Z M 183 139 " clip-rule="nonzero"/></clipPath><clipPath id="ad1d455f40"><path d="M -14.355469 87.804688 L 374.195312 64.460938 L 387.507812 286.0625 L -1.042969 309.40625 Z M -14.355469 87.804688 " clip-rule="nonzero"/></clipPath><clipPath id="8998fda8ca"><path d="M -14.355469 87.804688 L 374.195312 64.460938 L 387.507812 286.0625 L -1.042969 309.40625 Z M -14.355469 87.804688 " clip-rule="nonzero"/></clipPath><clipPath id="2f252106ab"><path d="M 181 137 L 207 137 L 207 175 L 181 175 Z M 181 137 " clip-rule="nonzero"/></clipPath><clipPath id="642b0e123b"><path d="M -14.355469 87.804688 L 374.195312 64.460938 L 387.507812 286.0625 L -1.042969 309.40625 Z M -14.355469 87.804688 " clip-rule="nonzero"/></clipPath><clipPath id="ddb021b60e"><path d="M -14.355469 87.804688 L 374.195312 64.460938 L 387.507812 286.0625 L -1.042969 309.40625 Z M -14.355469 87.804688 " clip-rule="nonzero"/></clipPath><clipPath id="0b870517c2"><path d="M 114 135 L 133 135 L 133 169 L 114 169 Z M 114 135 " clip-rule="nonzero"/></clipPath><clipPath id="579c4f646c"><path d="M -14.355469 87.804688 L 374.195312 64.460938 L 387.507812 286.0625 L -1.042969 309.40625 Z M -14.355469 87.804688 " clip-rule="nonzero"/></clipPath><clipPath id="06a9b13af8"><path d="M -14.355469 87.804688 L 374.195312 64.460938 L 387.507812 286.0625 L -1.042969 309.40625 Z M -14.355469 87.804688 " clip-rule="nonzero"/></clipPath><clipPath id="117dccff2e"><path d="M 113 133 L 135 133 L 135 171 L 113 171 Z M 113 133 " clip-rule="nonzero"/></clipPath><clipPath id="d53dacdbf9"><path d="M -14.355469 87.804688 L 374.195312 64.460938 L 387.507812 286.0625 L -1.042969 309.40625 Z M -14.355469 87.804688 " clip-rule="nonzero"/></clipPath><clipPath id="056e99c50d"><path d="M -14.355469 87.804688 L 374.195312 64.460938 L 387.507812 286.0625 L -1.042969 309.40625 Z M -14.355469 87.804688 " clip-rule="nonzero"/></clipPath><clipPath id="3b1ca15830"><path d="M 272 91 L 346 91 L 346 177 L 272 177 Z M 272 91 " clip-rule="nonzero"/></clipPath><clipPath id="56398737af"><path d="M -14.355469 87.804688 L 374.195312 64.460938 L 387.507812 286.0625 L -1.042969 309.40625 Z M -14.355469 87.804688 " clip-rule="nonzero"/></clipPath><clipPath id="077712e777"><path d="M -14.355469 87.804688 L 374.195312 64.460938 L 387.507812 286.0625 L -1.042969 309.40625 Z M -14.355469 87.804688 " clip-rule="nonzero"/></clipPath><clipPath id="cbcada2865"><path d="M 270 90 L 347 90 L 347 178 L 270 178 Z M 270 90 " clip-rule="nonzero"/></clipPath><clipPath id="012a547580"><path d="M -14.355469 87.804688 L 374.195312 64.460938 L 387.507812 286.0625 L -1.042969 309.40625 Z M -14.355469 87.804688 " clip-rule="nonzero"/></clipPath><clipPath id="b0c860ca6f"><path d="M -14.355469 87.804688 L 374.195312 64.460938 L 387.507812 286.0625 L -1.042969 309.40625 Z M -14.355469 87.804688 " clip-rule="nonzero"/></clipPath><clipPath id="8cc2debc13"><path d="M 56 133 L 75 133 L 75 165 L 56 165 Z M 56 133 " clip-rule="nonzero"/></clipPath><clipPath id="3557b91b23"><path d="M -14.355469 87.804688 L 374.195312 64.460938 L 387.507812 286.0625 L -1.042969 309.40625 Z M -14.355469 87.804688 " clip-rule="nonzero"/></clipPath><clipPath id="accb3c7f67"><path d="M -14.355469 87.804688 L 374.195312 64.460938 L 387.507812 286.0625 L -1.042969 309.40625 Z M -14.355469 87.804688 " clip-rule="nonzero"/></clipPath><clipPath id="5317c95d1b"><path d="M 55 132 L 76 132 L 76 167 L 55 167 Z M 55 132 " clip-rule="nonzero"/></clipPath><clipPath id="627d570569"><path d="M -14.355469 87.804688 L 374.195312 64.460938 L 387.507812 286.0625 L -1.042969 309.40625 Z M -14.355469 87.804688 " clip-rule="nonzero"/></clipPath><clipPath id="605ec476bc"><path d="M -14.355469 87.804688 L 374.195312 64.460938 L 387.507812 286.0625 L -1.042969 309.40625 Z M -14.355469 87.804688 " clip-rule="nonzero"/></clipPath><clipPath id="fa70efe920"><path d="M 277 139 L 316 139 L 316 172 L 277 172 Z M 277 139 " clip-rule="nonzero"/></clipPath><clipPath id="07faf0cdf8"><path d="M -14.355469 87.804688 L 374.195312 64.460938 L 387.507812 286.0625 L -1.042969 309.40625 Z M -14.355469 87.804688 " clip-rule="nonzero"/></clipPath><clipPath id="68d2035356"><path d="M -14.355469 87.804688 L 374.195312 64.460938 L 387.507812 286.0625 L -1.042969 309.40625 Z M -14.355469 87.804688 " clip-rule="nonzero"/></clipPath><clipPath id="3cf7240cd2"><path d="M 271 95 L 343 95 L 343 155 L 271 155 Z M 271 95 " clip-rule="nonzero"/></clipPath><clipPath id="d139416671"><path d="M -14.355469 87.804688 L 374.195312 64.460938 L 387.507812 286.0625 L -1.042969 309.40625 Z M -14.355469 87.804688 " clip-rule="nonzero"/></clipPath><clipPath id="86a6d03e52"><path d="M -14.355469 87.804688 L 374.195312 64.460938 L 387.507812 286.0625 L -1.042969 309.40625 Z M -14.355469 87.804688 " clip-rule="nonzero"/></clipPath><clipPath id="256405eefb"><path d="M 275 150 L 297 150 L 297 169 L 275 169 Z M 275 150 " clip-rule="nonzero"/></clipPath><clipPath id="9b651235fc"><path d="M -14.355469 87.804688 L 374.195312 64.460938 L 387.507812 286.0625 L -1.042969 309.40625 Z M -14.355469 87.804688 " clip-rule="nonzero"/></clipPath><clipPath id="f671f3747a"><path d="M -14.355469 87.804688 L 374.195312 64.460938 L 387.507812 286.0625 L -1.042969 309.40625 Z M -14.355469 87.804688 " clip-rule="nonzero"/></clipPath><clipPath id="24c748fdc0"><path d="M 272 136 L 302 136 L 302 161 L 272 161 Z M 272 136 " clip-rule="nonzero"/></clipPath><clipPath id="593360042c"><path d="M -14.355469 87.804688 L 374.195312 64.460938 L 387.507812 286.0625 L -1.042969 309.40625 Z M -14.355469 87.804688 " clip-rule="nonzero"/></clipPath><clipPath id="95355de8c9"><path d="M -14.355469 87.804688 L 374.195312 64.460938 L 387.507812 286.0625 L -1.042969 309.40625 Z M -14.355469 87.804688 " clip-rule="nonzero"/></clipPath><clipPath id="6fff960f1b"><path d="M 326 108 L 345 108 L 345 123 L 326 123 Z M 326 108 " clip-rule="nonzero"/></clipPath><clipPath id="f86c041e8b"><path d="M -14.355469 87.804688 L 374.195312 64.460938 L 387.507812 286.0625 L -1.042969 309.40625 Z M -14.355469 87.804688 " clip-rule="nonzero"/></clipPath><clipPath id="728553787f"><path d="M -14.355469 87.804688 L 374.195312 64.460938 L 387.507812 286.0625 L -1.042969 309.40625 Z M -14.355469 87.804688 " clip-rule="nonzero"/></clipPath><clipPath id="349406e154"><path d="M 315 102 L 344 102 L 344 126 L 315 126 Z M 315 102 " clip-rule="nonzero"/></clipPath><clipPath id="b065207743"><path d="M -14.355469 87.804688 L 374.195312 64.460938 L 387.507812 286.0625 L -1.042969 309.40625 Z M -14.355469 87.804688 " clip-rule="nonzero"/></clipPath><clipPath id="7b1c6df957"><path d="M -14.355469 87.804688 L 374.195312 64.460938 L 387.507812 286.0625 L -1.042969 309.40625 Z M -14.355469 87.804688 " clip-rule="nonzero"/></clipPath><clipPath id="6f1568ba0f"><path d="M 66 161 L 343 161 L 343 238 L 66 238 Z M 66 161 " clip-rule="nonzero"/></clipPath><clipPath id="b7cbda416c"><path d="M -14.355469 87.804688 L 374.195312 64.460938 L 387.507812 286.0625 L -1.042969 309.40625 Z M -14.355469 87.804688 " clip-rule="nonzero"/></clipPath><clipPath id="4df59a4634"><path d="M -14.355469 87.804688 L 374.195312 64.460938 L 387.507812 286.0625 L -1.042969 309.40625 Z M -14.355469 87.804688 " clip-rule="nonzero"/></clipPath><clipPath id="d0de8baba1"><path d="M 64 160 L 344 160 L 344 240 L 64 240 Z M 64 160 " clip-rule="nonzero"/></clipPath><clipPath id="cca0055933"><path d="M -14.355469 87.804688 L 374.195312 64.460938 L 387.507812 286.0625 L -1.042969 309.40625 Z M -14.355469 87.804688 " clip-rule="nonzero"/></clipPath><clipPath id="e3f82cf559"><path d="M -14.355469 87.804688 L 374.195312 64.460938 L 387.507812 286.0625 L -1.042969 309.40625 Z M -14.355469 87.804688 " clip-rule="nonzero"/></clipPath><clipPath id="094ee72313"><path d="M 67 139 L 339 139 L 339 197 L 67 197 Z M 67 139 " clip-rule="nonzero"/></clipPath><clipPath id="e7f1265310"><path d="M -14.355469 87.804688 L 374.195312 64.460938 L 387.507812 286.0625 L -1.042969 309.40625 Z M -14.355469 87.804688 " clip-rule="nonzero"/></clipPath><clipPath id="ce7c21259c"><path d="M -14.355469 87.804688 L 374.195312 64.460938 L 387.507812 286.0625 L -1.042969 309.40625 Z M -14.355469 87.804688 " clip-rule="nonzero"/></clipPath><clipPath id="6cf0de1c69"><path d="M 65 137 L 340 137 L 340 198 L 65 198 Z M 65 137 " clip-rule="nonzero"/></clipPath><clipPath id="d2bf718ee9"><path d="M -14.355469 87.804688 L 374.195312 64.460938 L 387.507812 286.0625 L -1.042969 309.40625 Z M -14.355469 87.804688 " clip-rule="nonzero"/></clipPath><clipPath id="4a626f5a1f"><path d="M -14.355469 87.804688 L 374.195312 64.460938 L 387.507812 286.0625 L -1.042969 309.40625 Z M -14.355469 87.804688 " clip-rule="nonzero"/></clipPath><clipPath id="c57779d629"><path d="M 298 163 L 329 163 L 329 208 L 298 208 Z M 298 163 " clip-rule="nonzero"/></clipPath><clipPath id="d05c6a249c"><path d="M -14.355469 87.804688 L 374.195312 64.460938 L 387.507812 286.0625 L -1.042969 309.40625 Z M -14.355469 87.804688 " clip-rule="nonzero"/></clipPath><clipPath id="f663504383"><path d="M -14.355469 87.804688 L 374.195312 64.460938 L 387.507812 286.0625 L -1.042969 309.40625 Z M -14.355469 87.804688 " clip-rule="nonzero"/></clipPath><clipPath id="1813b9771f"><path d="M 297 161 L 331 161 L 331 209 L 297 209 Z M 297 161 " clip-rule="nonzero"/></clipPath><clipPath id="6d8c8f37eb"><path d="M -14.355469 87.804688 L 374.195312 64.460938 L 387.507812 286.0625 L -1.042969 309.40625 Z M -14.355469 87.804688 " clip-rule="nonzero"/></clipPath><clipPath id="2a2465d847"><path d="M -14.355469 87.804688 L 374.195312 64.460938 L 387.507812 286.0625 L -1.042969 309.40625 Z M -14.355469 87.804688 " clip-rule="nonzero"/></clipPath><clipPath id="b450247af9"><path d="M 310 163 L 318 163 L 318 208 L 310 208 Z M 310 163 " clip-rule="nonzero"/></clipPath><clipPath id="3503f48f4b"><path d="M -14.355469 87.804688 L 374.195312 64.460938 L 387.507812 286.0625 L -1.042969 309.40625 Z M -14.355469 87.804688 " clip-rule="nonzero"/></clipPath><clipPath id="5e6528225c"><path d="M -14.355469 87.804688 L 374.195312 64.460938 L 387.507812 286.0625 L -1.042969 309.40625 Z M -14.355469 87.804688 " clip-rule="nonzero"/></clipPath><clipPath id="c4c725c168"><path d="M 80 191 L 115 191 L 115 236 L 80 236 Z M 80 191 " clip-rule="nonzero"/></clipPath><clipPath id="84e71ea013"><path d="M -14.355469 87.804688 L 374.195312 64.460938 L 387.507812 286.0625 L -1.042969 309.40625 Z M -14.355469 87.804688 " clip-rule="nonzero"/></clipPath><clipPath id="f7ea6fe478"><path d="M -14.355469 87.804688 L 374.195312 64.460938 L 387.507812 286.0625 L -1.042969 309.40625 Z M -14.355469 87.804688 " clip-rule="nonzero"/></clipPath><clipPath id="1ce8cda57d"><path d="M 79 189 L 117 189 L 117 238 L 79 238 Z M 79 189 " clip-rule="nonzero"/></clipPath><clipPath id="4b89a24e97"><path d="M -14.355469 87.804688 L 374.195312 64.460938 L 387.507812 286.0625 L -1.042969 309.40625 Z M -14.355469 87.804688 " clip-rule="nonzero"/></clipPath><clipPath id="3e62be0802"><path d="M -14.355469 87.804688 L 374.195312 64.460938 L 387.507812 286.0625 L -1.042969 309.40625 Z M -14.355469 87.804688 " clip-rule="nonzero"/></clipPath><clipPath id="aa4510d3a9"><path d="M 92 191 L 102 191 L 102 236 L 92 236 Z M 92 191 " clip-rule="nonzero"/></clipPath><clipPath id="116fa00e6f"><path d="M -14.355469 87.804688 L 374.195312 64.460938 L 387.507812 286.0625 L -1.042969 309.40625 Z M -14.355469 87.804688 " clip-rule="nonzero"/></clipPath><clipPath id="48793a39be"><path d="M -14.355469 87.804688 L 374.195312 64.460938 L 387.507812 286.0625 L -1.042969 309.40625 Z M -14.355469 87.804688 " clip-rule="nonzero"/></clipPath><clipPath id="d4f18dfb45"><path d="M 121 180 L 291 180 L 291 221 L 121 221 Z M 121 180 " clip-rule="nonzero"/></clipPath><clipPath id="31f36a9d25"><path d="M -14.355469 87.804688 L 374.195312 64.460938 L 387.507812 286.0625 L -1.042969 309.40625 Z M -14.355469 87.804688 " clip-rule="nonzero"/></clipPath><clipPath id="c6b720ce01"><path d="M -14.355469 87.804688 L 374.195312 64.460938 L 387.507812 286.0625 L -1.042969 309.40625 Z M -14.355469 87.804688 " clip-rule="nonzero"/></clipPath><clipPath id="a526d70893"><path d="M 120 178 L 292 178 L 292 222 L 120 222 Z M 120 178 " clip-rule="nonzero"/></clipPath><clipPath id="be2b8b9ea6"><path d="M -14.355469 87.804688 L 374.195312 64.460938 L 387.507812 286.0625 L -1.042969 309.40625 Z M -14.355469 87.804688 " clip-rule="nonzero"/></clipPath><clipPath id="464e6b5421"><path d="M -14.355469 87.804688 L 374.195312 64.460938 L 387.507812 286.0625 L -1.042969 309.40625 Z M -14.355469 87.804688 " clip-rule="nonzero"/></clipPath><clipPath id="918e861e7b"><path d="M 0 155 L 375 155 L 375 244 L 0 244 Z M 0 155 " clip-rule="nonzero"/></clipPath><clipPath id="46569e7f9b"><path d="M -14.355469 87.804688 L 374.195312 64.460938 L 387.507812 286.0625 L -1.042969 309.40625 Z M -14.355469 87.804688 " clip-rule="nonzero"/></clipPath><clipPath id="33d70c3ad4"><path d="M -14.355469 87.804688 L 374.195312 64.460938 L 387.507812 286.0625 L -1.042969 309.40625 Z M -14.355469 87.804688 " clip-rule="nonzero"/></clipPath><clipPath id="d31c2d978c"><path d="M 0 153 L 375 153 L 375 246 L 0 246 Z M 0 153 " clip-rule="nonzero"/></clipPath><clipPath id="aa9d0a678e"><path d="M -14.355469 87.804688 L 374.195312 64.460938 L 387.507812 286.0625 L -1.042969 309.40625 Z M -14.355469 87.804688 " clip-rule="nonzero"/></clipPath><clipPath id="f1831b08ad"><path d="M -14.355469 87.804688 L 374.195312 64.460938 L 387.507812 286.0625 L -1.042969 309.40625 Z M -14.355469 87.804688 " clip-rule="nonzero"/></clipPath><clipPath id="30007376eb"><path d="M -7.730469 166.933594 L 371.0625 144.175781 L 377.0625 244.039062 L -1.730469 266.796875 Z M -7.730469 166.933594 " clip-rule="nonzero"/></clipPath><clipPath id="9908496539"><path d="M 0 242 L 375 242 L 375 288 L 0 288 Z M 0 242 " clip-rule="nonzero"/></clipPath><clipPath id="63b0538fd5"><path d="M -14.355469 87.804688 L 374.195312 64.460938 L 387.507812 286.0625 L -1.042969 309.40625 Z M -14.355469 87.804688 " clip-rule="nonzero"/></clipPath><clipPath id="163e504be8"><path d="M -14.355469 87.804688 L 374.195312 64.460938 L 387.507812 286.0625 L -1.042969 309.40625 Z M -14.355469 87.804688 " clip-rule="nonzero"/></clipPath><clipPath id="b1d4103bb4"><path d="M 0 240 L 375 240 L 375 290 L 0 290 Z M 0 240 " clip-rule="nonzero"/></clipPath><clipPath id="2756ca5283"><path d="M -14.355469 87.804688 L 374.195312 64.460938 L 387.507812 286.0625 L -1.042969 309.40625 Z M -14.355469 87.804688 " clip-rule="nonzero"/></clipPath><clipPath id="812ec858a1"><path d="M -14.355469 87.804688 L 374.195312 64.460938 L 387.507812 286.0625 L -1.042969 309.40625 Z M -14.355469 87.804688 " clip-rule="nonzero"/></clipPath><clipPath id="780f428222"><path d="M -4.316406 241.894531 L 375.5625 219.070312 L 379.632812 286.816406 L -0.246094 309.640625 Z M -4.316406 241.894531 " clip-rule="nonzero"/></clipPath><clipPath id="5920995c02"><path d="M 0 243 L 31 243 L 31 284 L 0 284 Z M 0 243 " clip-rule="nonzero"/></clipPath><clipPath id="925b13ad93"><path d="M -14.355469 87.804688 L 374.195312 64.460938 L 387.507812 286.0625 L -1.042969 309.40625 Z M -14.355469 87.804688 " clip-rule="nonzero"/></clipPath><clipPath id="bcf9ed81fa"><path d="M -14.355469 87.804688 L 374.195312 64.460938 L 387.507812 286.0625 L -1.042969 309.40625 Z M -14.355469 87.804688 " clip-rule="nonzero"/></clipPath><clipPath id="d3e9407ea8"><path d="M 0 242 L 32 242 L 32 285 L 0 285 Z M 0 242 " clip-rule="nonzero"/></clipPath><clipPath id="190f4139ed"><path d="M -14.355469 87.804688 L 374.195312 64.460938 L 387.507812 286.0625 L -1.042969 309.40625 Z M -14.355469 87.804688 " clip-rule="nonzero"/></clipPath><clipPath id="fb520e1a6d"><path d="M -14.355469 87.804688 L 374.195312 64.460938 L 387.507812 286.0625 L -1.042969 309.40625 Z M -14.355469 87.804688 " clip-rule="nonzero"/></clipPath><clipPath id="5c0a83ca52"><path d="M 338 242 L 375 242 L 375 287 L 338 287 Z M 338 242 " clip-rule="nonzero"/></clipPath><clipPath id="94b2b528b4"><path d="M -14.355469 87.804688 L 374.195312 64.460938 L 387.507812 286.0625 L -1.042969 309.40625 Z M -14.355469 87.804688 " clip-rule="nonzero"/></clipPath><clipPath id="c8b2845de1"><path d="M -14.355469 87.804688 L 374.195312 64.460938 L 387.507812 286.0625 L -1.042969 309.40625 Z M -14.355469 87.804688 " clip-rule="nonzero"/></clipPath><clipPath id="ab8922a0f7"><path d="M 336 240 L 375 240 L 375 289 L 336 289 Z M 336 240 " clip-rule="nonzero"/></clipPath><clipPath id="330c7e1793"><path d="M -14.355469 87.804688 L 374.195312 64.460938 L 387.507812 286.0625 L -1.042969 309.40625 Z M -14.355469 87.804688 " clip-rule="nonzero"/></clipPath><clipPath id="e11184b3f3"><path d="M -14.355469 87.804688 L 374.195312 64.460938 L 387.507812 286.0625 L -1.042969 309.40625 Z M -14.355469 87.804688 " clip-rule="nonzero"/></clipPath><clipPath id="e2fed23b94"><path d="M 333.351562 241.214844 L 376.734375 238.609375 L 379.632812 286.816406 L 336.246094 289.421875 Z M 333.351562 241.214844 " clip-rule="nonzero"/></clipPath><clipPath id="079ea40f3d"><path d="M 40 251 L 101 251 L 101 278 L 40 278 Z M 40 251 " clip-rule="nonzero"/></clipPath><clipPath id="f277faed51"><path d="M -14.355469 87.804688 L 374.195312 64.460938 L 387.507812 286.0625 L -1.042969 309.40625 Z M -14.355469 87.804688 " clip-rule="nonzero"/></clipPath><clipPath id="4b0fb28d13"><path d="M -14.355469 87.804688 L 374.195312 64.460938 L 387.507812 286.0625 L -1.042969 309.40625 Z M -14.355469 87.804688 " clip-rule="nonzero"/></clipPath><clipPath id="d44427d67f"><path d="M 38 249 L 103 249 L 103 280 L 38 280 Z M 38 249 " clip-rule="nonzero"/></clipPath><clipPath id="2ac3b7b660"><path d="M -14.355469 87.804688 L 374.195312 64.460938 L 387.507812 286.0625 L -1.042969 309.40625 Z M -14.355469 87.804688 " clip-rule="nonzero"/></clipPath><clipPath id="391ce38ea1"><path d="M -14.355469 87.804688 L 374.195312 64.460938 L 387.507812 286.0625 L -1.042969 309.40625 Z M -14.355469 87.804688 " clip-rule="nonzero"/></clipPath><clipPath id="88ecfd1f1b"><path d="M 271 94 L 335 94 L 335 100 L 271 100 Z M 271 94 " clip-rule="nonzero"/></clipPath><clipPath id="2ec71094f2"><path d="M -14.355469 87.804688 L 374.195312 64.460938 L 387.507812 286.0625 L -1.042969 309.40625 Z M -14.355469 87.804688 " clip-rule="nonzero"/></clipPath><clipPath id="6f1f585496"><path d="M -14.355469 87.804688 L 374.195312 64.460938 L 387.507812 286.0625 L -1.042969 309.40625 Z M -14.355469 87.804688 " clip-rule="nonzero"/></clipPath><clipPath id="f2134284cc"><path d="M 291 99 L 329 99 L 329 104 L 291 104 Z M 291 99 " clip-rule="nonzero"/></clipPath><clipPath id="ba6f2a9913"><path d="M -14.355469 87.804688 L 374.195312 64.460938 L 387.507812 286.0625 L -1.042969 309.40625 Z M -14.355469 87.804688 " clip-rule="nonzero"/></clipPath><clipPath id="05340577df"><path d="M -14.355469 87.804688 L 374.195312 64.460938 L 387.507812 286.0625 L -1.042969 309.40625 Z M -14.355469 87.804688 " clip-rule="nonzero"/></clipPath><clipPath id="2c427f750a"><path d="M 126 89 L 134 89 L 134 92 L 126 92 Z M 126 89 " clip-rule="nonzero"/></clipPath><clipPath id="05e000af16"><path d="M -14.355469 87.804688 L 374.195312 64.460938 L 387.507812 286.0625 L -1.042969 309.40625 Z M -14.355469 87.804688 " clip-rule="nonzero"/></clipPath><clipPath id="401b8b203e"><path d="M -14.355469 87.804688 L 374.195312 64.460938 L 387.507812 286.0625 L -1.042969 309.40625 Z M -14.355469 87.804688 " clip-rule="nonzero"/></clipPath><clipPath id="1036646ce0"><path d="M 276 107 L 283 107 L 283 113 L 276 113 Z M 276 107 " clip-rule="nonzero"/></clipPath><clipPath id="a6cbc098fc"><path d="M -14.355469 87.804688 L 374.195312 64.460938 L 387.507812 286.0625 L -1.042969 309.40625 Z M -14.355469 87.804688 " clip-rule="nonzero"/></clipPath><clipPath id="30f2231930"><path d="M -14.355469 87.804688 L 374.195312 64.460938 L 387.507812 286.0625 L -1.042969 309.40625 Z M -14.355469 87.804688 " clip-rule="nonzero"/></clipPath><clipPath id="5688450802"><path d="M 249 133 L 254 133 L 254 136 L 249 136 Z M 249 133 " clip-rule="nonzero"/></clipPath><clipPath id="804a251544"><path d="M -14.355469 87.804688 L 374.195312 64.460938 L 387.507812 286.0625 L -1.042969 309.40625 Z M -14.355469 87.804688 " clip-rule="nonzero"/></clipPath><clipPath id="4faaa0ea25"><path d="M -14.355469 87.804688 L 374.195312 64.460938 L 387.507812 286.0625 L -1.042969 309.40625 Z M -14.355469 87.804688 " clip-rule="nonzero"/></clipPath><clipPath id="27db95f9b8"><path d="M 201 98 L 205 98 L 205 104 L 201 104 Z M 201 98 " clip-rule="nonzero"/></clipPath><clipPath id="e58ac3c7c6"><path d="M -14.355469 87.804688 L 374.195312 64.460938 L 387.507812 286.0625 L -1.042969 309.40625 Z M -14.355469 87.804688 " clip-rule="nonzero"/></clipPath><clipPath id="9dff0c357c"><path d="M -14.355469 87.804688 L 374.195312 64.460938 L 387.507812 286.0625 L -1.042969 309.40625 Z M -14.355469 87.804688 " clip-rule="nonzero"/></clipPath><clipPath id="f775f44b12"><path d="M 79 123 L 85 123 L 85 126 L 79 126 Z M 79 123 " clip-rule="nonzero"/></clipPath><clipPath id="74e8eb9a47"><path d="M -14.355469 87.804688 L 374.195312 64.460938 L 387.507812 286.0625 L -1.042969 309.40625 Z M -14.355469 87.804688 " clip-rule="nonzero"/></clipPath><clipPath id="00dc1e7f9e"><path d="M -14.355469 87.804688 L 374.195312 64.460938 L 387.507812 286.0625 L -1.042969 309.40625 Z M -14.355469 87.804688 " clip-rule="nonzero"/></clipPath><clipPath id="998286d1fc"><path d="M 163 113 L 168 113 L 168 117 L 163 117 Z M 163 113 " clip-rule="nonzero"/></clipPath><clipPath id="43556b8168"><path d="M -14.355469 87.804688 L 374.195312 64.460938 L 387.507812 286.0625 L -1.042969 309.40625 Z M -14.355469 87.804688 " clip-rule="nonzero"/></clipPath><clipPath id="83959c3757"><path d="M -14.355469 87.804688 L 374.195312 64.460938 L 387.507812 286.0625 L -1.042969 309.40625 Z M -14.355469 87.804688 " clip-rule="nonzero"/></clipPath><clipPath id="b4f940eaee"><path d="M 341 219 L 349 219 L 349 226 L 341 226 Z M 341 219 " clip-rule="nonzero"/></clipPath><clipPath id="5820e316a7"><path d="M -14.355469 87.804688 L 374.195312 64.460938 L 387.507812 286.0625 L -1.042969 309.40625 Z M -14.355469 87.804688 " clip-rule="nonzero"/></clipPath><clipPath id="85346f860e"><path d="M -14.355469 87.804688 L 374.195312 64.460938 L 387.507812 286.0625 L -1.042969 309.40625 Z M -14.355469 87.804688 " clip-rule="nonzero"/></clipPath><clipPath id="a62b03b51b"><path d="M 282 221 L 288 221 L 288 225 L 282 225 Z M 282 221 " clip-rule="nonzero"/></clipPath><clipPath id="af63fedb39"><path d="M -14.355469 87.804688 L 374.195312 64.460938 L 387.507812 286.0625 L -1.042969 309.40625 Z M -14.355469 87.804688 " clip-rule="nonzero"/></clipPath><clipPath id="44106adff5"><path d="M -14.355469 87.804688 L 374.195312 64.460938 L 387.507812 286.0625 L -1.042969 309.40625 Z M -14.355469 87.804688 " clip-rule="nonzero"/></clipPath><clipPath id="3d24a42191"><path d="M 52 204 L 57 204 L 57 208 L 52 208 Z M 52 204 " clip-rule="nonzero"/></clipPath><clipPath id="80abb8762f"><path d="M -14.355469 87.804688 L 374.195312 64.460938 L 387.507812 286.0625 L -1.042969 309.40625 Z M -14.355469 87.804688 " clip-rule="nonzero"/></clipPath><clipPath id="5ad4fdd9d3"><path d="M -14.355469 87.804688 L 374.195312 64.460938 L 387.507812 286.0625 L -1.042969 309.40625 Z M -14.355469 87.804688 " clip-rule="nonzero"/></clipPath><clipPath id="a9e7447297"><path d="M 35 232 L 40 232 L 40 236 L 35 236 Z M 35 232 " clip-rule="nonzero"/></clipPath><clipPath id="3921490666"><path d="M -14.355469 87.804688 L 374.195312 64.460938 L 387.507812 286.0625 L -1.042969 309.40625 Z M -14.355469 87.804688 " clip-rule="nonzero"/></clipPath><clipPath id="8965da85b9"><path d="M -14.355469 87.804688 L 374.195312 64.460938 L 387.507812 286.0625 L -1.042969 309.40625 Z M -14.355469 87.804688 " clip-rule="nonzero"/></clipPath><clipPath id="e144435b5a"><path d="M 195 248 L 375 248 L 375 252 L 195 252 Z M 195 248 " clip-rule="nonzero"/></clipPath><clipPath id="f41e7f1d5d"><path d="M -14.355469 87.804688 L 374.195312 64.460938 L 387.507812 286.0625 L -1.042969 309.40625 Z M -14.355469 87.804688 " clip-rule="nonzero"/></clipPath><clipPath id="8e52133cb0"><path d="M -14.355469 87.804688 L 374.195312 64.460938 L 387.507812 286.0625 L -1.042969 309.40625 Z M -14.355469 87.804688 " clip-rule="nonzero"/></clipPath><clipPath id="4dde0218c3"><path d="M 195.496094 249.5 L 376.734375 238.609375 L 377.519531 251.636719 L 196.28125 262.523438 Z M 195.496094 249.5 " clip-rule="nonzero"/></clipPath><clipPath id="0f9fbeceb3"><path d="M 316 255 L 367 255 L 367 258 L 316 258 Z M 316 255 " clip-rule="nonzero"/></clipPath><clipPath id="1522abd3e2"><path d="M -14.355469 87.804688 L 374.195312 64.460938 L 387.507812 286.0625 L -1.042969 309.40625 Z M -14.355469 87.804688 " clip-rule="nonzero"/></clipPath><clipPath id="ef57b97799"><path d="M -14.355469 87.804688 L 374.195312 64.460938 L 387.507812 286.0625 L -1.042969 309.40625 Z M -14.355469 87.804688 " clip-rule="nonzero"/></clipPath><clipPath id="89af34a635"><path d="M 282 266 L 303 266 L 303 269 L 282 269 Z M 282 266 " clip-rule="nonzero"/></clipPath><clipPath id="3ba15cfae9"><path d="M -14.355469 87.804688 L 374.195312 64.460938 L 387.507812 286.0625 L -1.042969 309.40625 Z M -14.355469 87.804688 " clip-rule="nonzero"/></clipPath><clipPath id="fe6d364a30"><path d="M -14.355469 87.804688 L 374.195312 64.460938 L 387.507812 286.0625 L -1.042969 309.40625 Z M -14.355469 87.804688 " clip-rule="nonzero"/></clipPath><clipPath id="f9168f3c48"><path d="M 295 271 L 319 271 L 319 274 L 295 274 Z M 295 271 " clip-rule="nonzero"/></clipPath><clipPath id="5e917ceabd"><path d="M -14.355469 87.804688 L 374.195312 64.460938 L 387.507812 286.0625 L -1.042969 309.40625 Z M -14.355469 87.804688 " clip-rule="nonzero"/></clipPath><clipPath id="722d5bbcb6"><path d="M -14.355469 87.804688 L 374.195312 64.460938 L 387.507812 286.0625 L -1.042969 309.40625 Z M -14.355469 87.804688 " clip-rule="nonzero"/></clipPath><clipPath id="e5e1df1907"><path d="M 301 275 L 316 275 L 316 279 L 301 279 Z M 301 275 " clip-rule="nonzero"/></clipPath><clipPath id="96f6daed3a"><path d="M -14.355469 87.804688 L 374.195312 64.460938 L 387.507812 286.0625 L -1.042969 309.40625 Z M -14.355469 87.804688 " clip-rule="nonzero"/></clipPath><clipPath id="9aea647667"><path d="M -14.355469 87.804688 L 374.195312 64.460938 L 387.507812 286.0625 L -1.042969 309.40625 Z M -14.355469 87.804688 " clip-rule="nonzero"/></clipPath><clipPath id="f76d41e79e"><path d="M 0 275 L 34 275 L 34 279 L 0 279 Z M 0 275 " clip-rule="nonzero"/></clipPath><clipPath id="7d88be24db"><path d="M -14.355469 87.804688 L 374.195312 64.460938 L 387.507812 286.0625 L -1.042969 309.40625 Z M -14.355469 87.804688 " clip-rule="nonzero"/></clipPath><clipPath id="f3b5a2abe1"><path d="M -14.355469 87.804688 L 374.195312 64.460938 L 387.507812 286.0625 L -1.042969 309.40625 Z M -14.355469 87.804688 " clip-rule="nonzero"/></clipPath><clipPath id="1af930a799"><path d="M 0 269 L 20 269 L 20 273 L 0 273 Z M 0 269 " clip-rule="nonzero"/></clipPath><clipPath id="06e2013169"><path d="M -14.355469 87.804688 L 374.195312 64.460938 L 387.507812 286.0625 L -1.042969 309.40625 Z M -14.355469 87.804688 " clip-rule="nonzero"/></clipPath><clipPath id="437ce64fd8"><path d="M -14.355469 87.804688 L 374.195312 64.460938 L 387.507812 286.0625 L -1.042969 309.40625 Z M -14.355469 87.804688 " clip-rule="nonzero"/></clipPath><clipPath id="c5745d209e"><path d="M 116 278 L 193 278 L 193 283 L 116 283 Z M 116 278 " clip-rule="nonzero"/></clipPath><clipPath id="7848a47e97"><path d="M -14.355469 87.804688 L 374.195312 64.460938 L 387.507812 286.0625 L -1.042969 309.40625 Z M -14.355469 87.804688 " clip-rule="nonzero"/></clipPath><clipPath id="5b0eaa0d8b"><path d="M -14.355469 87.804688 L 374.195312 64.460938 L 387.507812 286.0625 L -1.042969 309.40625 Z M -14.355469 87.804688 " clip-rule="nonzero"/></clipPath><clipPath id="dfab0fe805"><path d="M 46 138 L 151 138 L 151 145 L 46 145 Z M 46 138 " clip-rule="nonzero"/></clipPath><clipPath id="a105030c45"><path d="M -14.355469 87.804688 L 374.195312 64.460938 L 387.507812 286.0625 L -1.042969 309.40625 Z M -14.355469 87.804688 " clip-rule="nonzero"/></clipPath><clipPath id="e6842eb6e0"><path d="M -14.355469 87.804688 L 374.195312 64.460938 L 387.507812 286.0625 L -1.042969 309.40625 Z M -14.355469 87.804688 " clip-rule="nonzero"/></clipPath><clipPath id="73bd23bf23"><path d="M 159 143 L 192 143 L 192 148 L 159 148 Z M 159 143 " clip-rule="nonzero"/></clipPath><clipPath id="1f11d967de"><path d="M -14.355469 87.804688 L 374.195312 64.460938 L 387.507812 286.0625 L -1.042969 309.40625 Z M -14.355469 87.804688 " clip-rule="nonzero"/></clipPath><clipPath id="effe138768"><path d="M -14.355469 87.804688 L 374.195312 64.460938 L 387.507812 286.0625 L -1.042969 309.40625 Z M -14.355469 87.804688 " clip-rule="nonzero"/></clipPath></defs><g clip-path="url(#4eeccfd219)"><g clip-path="url(#13b8c0018c)"><g clip-path="url(#cdd0038800)"><path fill="#1e7976" d="M 242.738281 144.53125 C 262.394531 146.167969 272.222656 146.980469 272.222656 146.980469 C 317.945312 110.191406 340.808594 91.796875 340.808594 91.796875 C 195.765625 84.714844 123.246094 81.171875 123.246094 81.171875 C 68.246094 117.703125 43.992188 133.832031 43.992188 133.832031 C 113.097656 132.949219 174.109375 138.828125 242.738281 144.53125 " fill-opacity="1" fill-rule="evenodd"/></g></g></g><g clip-path="url(#cec5ddc941)"><g clip-path="url(#95c556c81d)"><g clip-path="url(#eac59051c5)"><path fill="#2a0303" d="M 272.09375 148.605469 L 242.609375 146.15625 C 235.816406 145.589844 229.101562 145.023438 222.445312 144.460938 C 161.871094 139.355469 106.214844 134.664062 44.058594 135.460938 C 43.507812 135.484375 42.960938 135.226562 42.632812 134.730469 C 42.136719 133.984375 42.34375 132.976562 43.09375 132.480469 C 43.160156 132.433594 67.34375 116.355469 122.328125 79.828125 C 122.609375 79.636719 122.953125 79.53125 123.316406 79.546875 L 340.878906 90.167969 C 341.328125 90.195312 341.769531 90.398438 342.074219 90.773438 C 342.636719 91.472656 342.527344 92.496094 341.828125 93.0625 L 273.296875 148.207031 C 272.972656 148.488281 272.550781 148.640625 272.09375 148.605469 Z M 242.871094 142.910156 L 271.714844 145.304688 L 336.453125 93.214844 L 123.699219 82.828125 C 82.566406 110.148438 58.757812 125.972656 49.460938 132.152344 C 109.617188 131.6875 163.84375 136.257812 222.710938 141.21875 C 229.367188 141.777344 236.082031 142.34375 242.871094 142.910156 " fill-opacity="1" fill-rule="evenodd"/></g></g></g><g clip-path="url(#ee0d08e677)"><g clip-path="url(#8d55f0a50d)"><g clip-path="url(#a3fe27ab53)"><path fill="#1e7976" d="M 43.992188 133.832031 C 40.019531 142.589844 40.144531 152.046875 44.367188 162.203125 C 161.140625 171.097656 240.707031 175.777344 283.074219 176.253906 C 276.628906 171.152344 273.011719 161.394531 272.222656 146.980469 C 272.222656 146.980469 262.394531 146.167969 242.738281 144.53125 C 174.109375 138.828125 113.097656 132.949219 43.992188 133.832031 " fill-opacity="1" fill-rule="evenodd"/></g></g></g><g clip-path="url(#ac3dca58f0)"><g clip-path="url(#2611bcfc24)"><g clip-path="url(#dcfa430e66)"><path fill="#2a0303" d="M 39.480469 147.523438 C 39.414062 142.546875 40.421875 137.757812 42.507812 133.164062 C 42.757812 132.605469 43.320312 132.214844 43.96875 132.210938 C 106.332031 131.410156 162.058594 136.105469 222.710938 141.21875 C 229.367188 141.777344 236.082031 142.34375 242.871094 142.910156 L 272.355469 145.359375 C 273.152344 145.425781 273.800781 146.070312 273.84375 146.890625 C 274.234375 153.933594 275.296875 159.816406 277.050781 164.546875 C 278.734375 169.09375 281.050781 172.542969 283.992188 174.910156 C 284.421875 175.207031 284.707031 175.707031 284.699219 176.269531 C 284.6875 177.167969 283.953125 177.890625 283.054688 177.882812 C 261.835938 177.644531 231.328125 176.355469 191.527344 174.011719 C 151.859375 171.675781 102.765625 168.28125 44.25 163.828125 C 43.652344 163.777344 43.109375 163.410156 42.863281 162.824219 C 40.675781 157.550781 39.546875 152.449219 39.480469 147.523438 Z M 45.0625 135.449219 C 43.453125 139.316406 42.675781 143.324219 42.734375 147.46875 C 42.789062 151.707031 43.707031 156.105469 45.496094 160.660156 C 103.304688 165.058594 152.050781 168.421875 191.714844 170.757812 C 229 172.953125 258.101562 174.222656 279.019531 174.570312 C 276.984375 172.171875 275.3125 169.203125 274.003906 165.675781 C 272.261719 160.964844 271.152344 155.238281 270.6875 148.492188 L 242.609375 146.15625 C 235.816406 145.589844 229.101562 145.023438 222.445312 144.460938 C 162.199219 139.386719 106.816406 134.71875 45.0625 135.449219 " fill-opacity="1" fill-rule="evenodd"/></g></g></g><g clip-path="url(#834bb489eb)"><g clip-path="url(#5a9a796ad0)"><g clip-path="url(#bc44697076)"><path fill="#052f32" d="M 248.484375 175.28125 C 253.976562 175.5 259.144531 175.6875 263.992188 175.832031 C 260.253906 168.304688 257.226562 158.207031 257.480469 145.757812 L 244.355469 144.667969 C 242.941406 155.972656 244.316406 166.179688 248.484375 175.28125 " fill-opacity="1" fill-rule="evenodd"/></g></g></g><g clip-path="url(#b6ee04937a)"><g clip-path="url(#ede0aae4b1)"><g clip-path="url(#6749a38fd5)"><path fill="#2a0303" d="M 256.421875 177.207031 C 253.742188 177.113281 251.074219 177.007812 248.425781 176.90625 C 247.832031 176.882812 247.277344 176.53125 247.011719 175.957031 C 244.855469 171.253906 243.425781 166.273438 242.714844 161.015625 C 242.011719 155.808594 242.019531 150.320312 242.734375 144.546875 L 242.730469 144.535156 C 242.804688 143.636719 243.589844 142.96875 244.488281 143.042969 L 257.546875 144.125 C 258.429688 144.164062 259.128906 144.894531 259.113281 145.785156 C 258.996094 151.367188 259.554688 156.464844 260.550781 161.058594 C 261.71875 166.457031 263.476562 171.136719 265.429688 175.082031 C 265.554688 175.320312 265.625 175.59375 265.617188 175.878906 C 265.589844 176.78125 264.839844 177.484375 263.945312 177.457031 C 261.4375 177.382812 258.925781 177.300781 256.421875 177.207031 Z M 249.5625 173.695312 C 252.023438 173.792969 254.347656 173.882812 256.535156 173.957031 L 261.394531 174.125 C 259.78125 170.488281 258.359375 166.355469 257.363281 161.746094 C 256.414062 157.347656 255.835938 152.515625 255.835938 147.253906 L 245.792969 146.421875 C 245.285156 151.359375 245.335938 156.085938 245.941406 160.589844 C 246.566406 165.195312 247.773438 169.566406 249.5625 173.695312 " fill-opacity="1" fill-rule="evenodd"/></g></g></g><g clip-path="url(#6b6d5b810e)"><g clip-path="url(#ad1d455f40)"><g clip-path="url(#8998fda8ca)"><path fill="#052f32" d="M 187.449219 172.140625 C 193.359375 172.488281 199.070312 172.820312 204.582031 173.128906 C 200.132812 162.652344 198.492188 151.917969 199.664062 140.921875 C 194.214844 140.472656 188.796875 140.03125 183.394531 139.601562 C 182.320312 152.898438 183.671875 163.746094 187.449219 172.140625 " fill-opacity="1" fill-rule="evenodd"/></g></g></g><g clip-path="url(#2f252106ab)"><g clip-path="url(#642b0e123b)"><g clip-path="url(#ddb021b60e)"><path fill="#2a0303" d="M 196.070312 174.277344 L 187.355469 173.765625 C 186.769531 173.730469 186.21875 173.375 185.964844 172.800781 C 184.011719 168.457031 182.683594 163.492188 181.988281 157.910156 C 181.300781 152.378906 181.226562 146.234375 181.773438 139.476562 C 181.84375 138.582031 182.625 137.910156 183.519531 137.976562 L 191.644531 138.628906 L 199.832031 139.304688 C 200.726562 139.394531 201.375 140.199219 201.28125 141.09375 C 200.710938 146.457031 200.824219 151.75 201.621094 156.976562 C 202.417969 162.183594 203.898438 167.34375 206.0625 172.449219 C 206.167969 172.683594 206.222656 172.941406 206.207031 173.214844 C 206.160156 174.113281 205.390625 174.800781 204.496094 174.757812 Z M 188.542969 170.570312 L 196.257812 171.023438 L 202.113281 171.359375 C 200.355469 166.785156 199.125 162.152344 198.410156 157.464844 C 197.652344 152.492188 197.476562 147.472656 197.886719 142.410156 C 193.558594 142.054688 189.230469 141.703125 184.898438 141.355469 C 184.507812 147.25 184.613281 152.636719 185.21875 157.507812 C 185.828125 162.378906 186.933594 166.734375 188.542969 170.570312 " fill-opacity="1" fill-rule="evenodd"/></g></g></g><g clip-path="url(#0b870517c2)"><g clip-path="url(#579c4f646c)"><g clip-path="url(#06a9b13af8)"><path fill="#052f32" d="M 117.652344 167.574219 C 122.683594 167.929688 127.617188 168.265625 132.457031 168.601562 C 129.726562 158.417969 129.015625 147.527344 130.332031 135.917969 C 125.625 135.652344 120.917969 135.40625 116.191406 135.183594 C 113.734375 146.3125 114.226562 157.113281 117.652344 167.574219 " fill-opacity="1" fill-rule="evenodd"/></g></g></g><g clip-path="url(#117dccff2e)"><g clip-path="url(#d53dacdbf9)"><g clip-path="url(#056e99c50d)"><path fill="#2a0303" d="M 125.011719 169.714844 L 117.625 169.203125 C 116.949219 169.1875 116.328125 168.757812 116.109375 168.085938 C 114.347656 162.714844 113.34375 157.253906 113.09375 151.707031 C 112.84375 146.148438 113.34375 140.527344 114.601562 134.832031 C 114.769531 134.074219 115.464844 133.523438 116.265625 133.558594 C 118.730469 133.675781 121.089844 133.792969 123.351562 133.910156 C 125.792969 134.035156 128.132812 134.160156 130.359375 134.285156 L 130.511719 134.300781 C 131.40625 134.398438 132.050781 135.207031 131.949219 136.101562 C 131.296875 141.828125 131.148438 147.359375 131.496094 152.6875 C 131.84375 158.023438 132.6875 163.1875 134.027344 168.179688 C 134.070312 168.347656 134.089844 168.523438 134.078125 168.703125 C 134.019531 169.601562 133.246094 170.277344 132.347656 170.21875 Z M 118.871094 166.027344 L 130.332031 166.824219 C 129.257812 162.316406 128.5625 157.671875 128.253906 152.894531 C 127.925781 147.875 128.015625 142.726562 128.527344 137.449219 L 123.1875 137.160156 C 121.234375 137.0625 119.332031 136.960938 117.503906 136.875 C 116.507812 141.851562 116.121094 146.742188 116.335938 151.550781 C 116.558594 156.445312 117.402344 161.269531 118.871094 166.027344 " fill-opacity="1" fill-rule="evenodd"/></g></g></g><g clip-path="url(#3b1ca15830)"><g clip-path="url(#56398737af)"><g clip-path="url(#077712e777)"><path fill="#c68541" d="M 283.074219 176.253906 C 324.445312 139.589844 345.132812 121.253906 345.132812 121.253906 C 342.25 101.617188 340.808594 91.796875 340.808594 91.796875 C 340.808594 91.796875 317.945312 110.191406 272.222656 146.980469 C 273.011719 161.394531 276.628906 171.152344 283.074219 176.253906 " fill-opacity="1" fill-rule="evenodd"/></g></g></g><g clip-path="url(#cbcada2865)"><g clip-path="url(#012a547580)"><g clip-path="url(#b0c860ca6f)"><path fill="#2a0303" d="M 346.203125 122.476562 L 284.144531 177.472656 C 283.566406 177.984375 282.6875 178.019531 282.0625 177.527344 C 278.601562 174.785156 275.917969 170.835938 274.003906 165.675781 C 272.144531 160.660156 271.011719 154.480469 270.605469 147.144531 C 270.550781 146.617188 270.757812 146.074219 271.203125 145.714844 L 339.703125 90.601562 C 339.9375 90.382812 340.234375 90.230469 340.578125 90.183594 C 341.46875 90.054688 342.292969 90.675781 342.417969 91.566406 L 346.742188 121.023438 L 346.738281 121.023438 C 346.8125 121.550781 346.632812 122.097656 346.203125 122.476562 Z M 283.054688 174.097656 L 343.390625 120.625 L 339.609375 94.851562 L 273.894531 147.722656 C 274.316406 154.398438 275.367188 160.007812 277.050781 164.546875 C 278.550781 168.597656 280.550781 171.785156 283.054688 174.097656 " fill-opacity="1" fill-rule="evenodd"/></g></g></g><g clip-path="url(#8cc2debc13)"><g clip-path="url(#3557b91b23)"><g clip-path="url(#accb3c7f67)"><path fill="#052f32" d="M 74.234375 164.445312 C 70.972656 153.980469 70.257812 143.777344 72.085938 133.835938 C 67.707031 133.777344 63.296875 133.75 58.867188 133.75 C 55.871094 143.070312 56.058594 152.9375 59.4375 163.34375 C 64.4375 163.722656 69.371094 164.089844 74.234375 164.445312 " fill-opacity="1" fill-rule="evenodd"/></g></g></g><g clip-path="url(#5317c95d1b)"><g clip-path="url(#627d570569)"><g clip-path="url(#605ec476bc)"><path fill="#2a0303" d="M 72.871094 148.835938 C 73.222656 153.800781 74.191406 158.84375 75.789062 163.960938 C 75.847656 164.15625 75.871094 164.355469 75.855469 164.566406 C 75.789062 165.460938 75.007812 166.132812 74.117188 166.066406 L 59.316406 164.964844 C 58.675781 164.917969 58.101562 164.492188 57.886719 163.847656 C 56.152344 158.488281 55.234375 153.265625 55.132812 148.171875 C 55.035156 143.085938 55.757812 138.140625 57.289062 133.332031 C 57.472656 132.636719 58.105469 132.121094 58.863281 132.117188 C 61.175781 132.121094 63.386719 132.128906 65.507812 132.144531 C 67.761719 132.160156 69.960938 132.179688 72.101562 132.207031 C 72.191406 132.207031 72.285156 132.21875 72.375 132.234375 C 73.261719 132.398438 73.84375 133.246094 73.6875 134.128906 C 72.792969 138.972656 72.523438 143.871094 72.871094 148.835938 Z M 72.007812 162.648438 C 70.738281 158.078125 69.945312 153.546875 69.628906 149.054688 C 69.304688 144.460938 69.484375 139.921875 70.164062 135.445312 C 68.582031 135.425781 67.023438 135.410156 65.484375 135.402344 C 63.625 135.386719 61.816406 135.378906 60.066406 135.375 C 58.863281 139.511719 58.300781 143.753906 58.386719 148.105469 C 58.472656 152.550781 59.226562 157.117188 60.65625 161.804688 L 72.007812 162.648438 " fill-opacity="1" fill-rule="evenodd"/></g></g></g><g clip-path="url(#fa70efe920)"><g clip-path="url(#07faf0cdf8)"><g clip-path="url(#68d2035356)"><path fill="#2a0303" d="M 279.007812 171.6875 C 278.542969 172.074219 277.859375 172.007812 277.480469 171.546875 C 277.09375 171.085938 277.160156 170.398438 277.621094 170.019531 L 313.84375 139.925781 C 314.304688 139.546875 314.992188 139.609375 315.371094 140.070312 C 315.753906 140.53125 315.691406 141.214844 315.230469 141.597656 L 279.007812 171.6875 " fill-opacity="1" fill-rule="evenodd"/></g></g></g><g clip-path="url(#3cf7240cd2)"><g clip-path="url(#d139416671)"><g clip-path="url(#86a6d03e52)"><path fill="#2a0303" d="M 273.558594 154.71875 C 273.09375 155.097656 272.410156 155.035156 272.027344 154.574219 C 271.648438 154.113281 271.710938 153.429688 272.171875 153.042969 L 340.851562 95.996094 C 341.3125 95.613281 342 95.675781 342.378906 96.140625 C 342.765625 96.601562 342.699219 97.28125 342.238281 97.667969 L 273.558594 154.71875 " fill-opacity="1" fill-rule="evenodd"/></g></g></g><g clip-path="url(#256405eefb)"><g clip-path="url(#9b651235fc)"><g clip-path="url(#f671f3747a)"><path fill="#2a0303" d="M 277.316406 168.550781 C 276.863281 168.9375 276.179688 168.878906 275.789062 168.425781 C 275.402344 167.96875 275.457031 167.285156 275.914062 166.898438 L 295.074219 150.667969 C 295.535156 150.277344 296.21875 150.335938 296.601562 150.792969 C 296.992188 151.246094 296.933594 151.929688 296.476562 152.320312 L 277.316406 168.550781 " fill-opacity="1" fill-rule="evenodd"/></g></g></g><g clip-path="url(#24c748fdc0)"><g clip-path="url(#593360042c)"><g clip-path="url(#95355de8c9)"><path fill="#2a0303" d="M 274.511719 160.144531 C 274.046875 160.523438 273.359375 160.453125 272.984375 159.988281 C 272.605469 159.519531 272.675781 158.835938 273.148438 158.457031 L 299.289062 137.21875 C 299.753906 136.839844 300.441406 136.914062 300.816406 137.382812 C 301.195312 137.847656 301.125 138.535156 300.660156 138.910156 L 274.511719 160.144531 " fill-opacity="1" fill-rule="evenodd"/></g></g></g><g clip-path="url(#6fff960f1b)"><g clip-path="url(#f86c041e8b)"><g clip-path="url(#728553787f)"><path fill="#2a0303" d="M 342.695312 108.378906 C 343.160156 108.007812 343.84375 108.085938 344.214844 108.558594 C 344.582031 109.023438 344.503906 109.707031 344.039062 110.078125 L 328.75 122.214844 C 328.28125 122.582031 327.601562 122.503906 327.230469 122.039062 C 326.855469 121.566406 326.9375 120.882812 327.40625 120.511719 L 342.695312 108.378906 " fill-opacity="1" fill-rule="evenodd"/></g></g></g><g clip-path="url(#349406e154)"><g clip-path="url(#b065207743)"><g clip-path="url(#7b1c6df957)"><path fill="#2a0303" d="M 341.84375 102.683594 C 342.308594 102.304688 342.992188 102.375 343.367188 102.835938 C 343.746094 103.304688 343.675781 103.984375 343.214844 104.367188 L 317.605469 125.222656 C 317.144531 125.601562 316.460938 125.53125 316.082031 125.070312 C 315.707031 124.601562 315.777344 123.921875 316.238281 123.539062 L 341.84375 102.683594 " fill-opacity="1" fill-rule="evenodd"/></g></g></g><g clip-path="url(#6f1568ba0f)"><g clip-path="url(#b7cbda416c)"><g clip-path="url(#4df59a4634)"><path fill="#f2dd80" d="M 67.554688 196.355469 C 64.035156 207.90625 66.734375 230.214844 75.34375 237.554688 L 339.972656 202.046875 C 344.15625 199.488281 341.980469 168.980469 338.363281 161.695312 L 292.933594 167.511719 L 283.074219 176.253906 C 270.675781 176.113281 255.09375 175.613281 236.335938 174.753906 L 67.554688 196.355469 " fill-opacity="1" fill-rule="evenodd"/></g></g></g><g clip-path="url(#d0de8baba1)"><g clip-path="url(#cca0055933)"><g clip-path="url(#e3f82cf559)"><path fill="#2a0303" d="M 65.546875 220.207031 C 63.9375 211.699219 64.066406 202.34375 65.96875 195.996094 C 66.113281 195.34375 66.652344 194.828125 67.351562 194.738281 L 236.125 173.140625 C 236.21875 173.128906 236.3125 173.125 236.40625 173.128906 C 245.902344 173.5625 254.480469 173.90625 262.136719 174.148438 C 269.542969 174.390625 276.324219 174.542969 282.46875 174.617188 L 291.777344 166.363281 C 292.023438 166.113281 292.351562 165.945312 292.726562 165.898438 L 338.15625 160.082031 L 338.160156 160.085938 C 338.828125 160.003906 339.503906 160.34375 339.820312 160.980469 C 341.839844 165.039062 343.417969 175.738281 343.796875 185.226562 C 344.140625 193.964844 343.355469 201.890625 340.820312 203.4375 C 340.632812 203.554688 340.417969 203.628906 340.183594 203.660156 L 75.554688 239.167969 C 75.113281 239.226562 74.652344 239.105469 74.289062 238.792969 C 69.929688 235.078125 67.007812 227.949219 65.546875 220.207031 Z M 68.828125 197.832031 C 67.3125 203.679688 67.292969 211.972656 68.742188 219.609375 C 70.015625 226.351562 72.40625 232.507812 75.875 235.839844 L 339.316406 200.492188 C 340.546875 199.148438 340.839844 192.671875 340.546875 185.351562 C 340.214844 177 338.96875 167.78125 337.355469 163.46875 L 293.632812 169.066406 L 284.144531 177.472656 C 283.835938 177.746094 283.441406 177.882812 283.054688 177.878906 L 283.054688 177.882812 C 276.96875 177.816406 269.964844 177.652344 262.042969 177.398438 C 254.164062 177.148438 245.617188 176.808594 236.40625 176.390625 L 68.828125 197.832031 " fill-opacity="1" fill-rule="evenodd"/></g></g></g><g clip-path="url(#094ee72313)"><g clip-path="url(#e7f1265310)"><g clip-path="url(#ce7c21259c)"><path fill="#f2dd80" d="M 292.933594 167.511719 L 338.363281 161.695312 L 324.628906 139.417969 Z M 273.839844 159.339844 C 273.730469 158.859375 273.628906 158.382812 273.53125 157.890625 C 273.628906 158.382812 273.730469 158.859375 273.839844 159.339844 Z M 274.34375 161.378906 C 274.171875 160.746094 274.011719 160.097656 273.863281 159.4375 C 274.011719 160.097656 274.171875 160.746094 274.34375 161.378906 Z M 274.796875 162.945312 C 274.667969 162.523438 274.542969 162.101562 274.421875 161.667969 C 274.542969 162.101562 274.667969 162.523438 274.796875 162.945312 Z M 276.5 167.46875 C 276.011719 166.40625 275.566406 165.273438 275.160156 164.078125 C 275.566406 165.273438 276.011719 166.40625 276.5 167.46875 Z M 277.507812 169.484375 C 277.167969 168.867188 276.839844 168.21875 276.53125 167.542969 C 276.839844 168.21875 277.167969 168.867188 277.507812 169.484375 Z M 67.554688 196.355469 L 236.335938 174.753906 C 198.675781 173.03125 148.1875 169.855469 84.875 165.230469 L 84.867188 165.230469 C 73.324219 185.980469 67.554688 196.355469 67.554688 196.355469 " fill-opacity="1" fill-rule="evenodd"/></g></g></g><g clip-path="url(#6cf0de1c69)"><g clip-path="url(#d2bf718ee9)"><g clip-path="url(#4a626f5a1f)"><path fill="#2a0303" d="M 338.574219 163.3125 L 293.136719 169.128906 L 293.136719 169.125 C 292.621094 169.191406 292.082031 169.003906 291.714844 168.589844 C 291.121094 167.914062 291.1875 166.890625 291.855469 166.296875 L 323.480469 138.265625 C 323.570312 138.179688 323.671875 138.101562 323.777344 138.035156 C 324.542969 137.5625 325.546875 137.800781 326.015625 138.566406 L 339.722656 160.796875 C 339.855469 161.003906 339.949219 161.234375 339.976562 161.492188 C 340.089844 162.382812 339.464844 163.199219 338.574219 163.3125 Z M 297.964844 165.226562 L 335.652344 160.40625 L 324.261719 141.921875 Z M 275.671875 160.03125 C 275.476562 159.207031 275.300781 158.402344 275.125 157.574219 L 273.929688 157.8125 C 273.789062 157.800781 273.640625 157.816406 273.5 157.847656 C 273.382812 157.878906 273.273438 157.914062 273.167969 157.960938 L 271.9375 158.207031 L 272.089844 158.960938 L 272.273438 159.800781 L 272.519531 160.808594 C 272.597656 161.132812 272.6875 161.464844 272.773438 161.800781 L 275.914062 160.960938 Z M 273.242188 163.421875 L 273.042969 162.761719 L 272.851562 162.097656 L 275.992188 161.230469 L 276.167969 161.859375 L 276.351562 162.46875 Z M 275.019531 168.144531 L 277.976562 166.792969 C 277.761719 166.316406 277.542969 165.792969 277.316406 165.230469 C 277.285156 165.144531 277.25 165.058594 277.21875 164.980469 C 277.023438 164.480469 276.851562 164.007812 276.699219 163.558594 L 273.621094 164.59375 C 273.851562 165.265625 274.070312 165.875 274.285156 166.417969 C 274.507812 166.980469 274.753906 167.558594 275.019531 168.144531 Z M 277.605469 171.113281 L 277.605469 171.109375 C 277 171.144531 276.394531 170.835938 276.082031 170.269531 C 275.882812 169.90625 275.707031 169.578125 275.554688 169.269531 C 275.414062 168.992188 275.25 168.640625 275.054688 168.21875 L 278.011719 166.867188 L 278.035156 166.921875 C 278.148438 167.160156 278.289062 167.457031 278.464844 167.800781 C 278.617188 168.105469 278.757812 168.371094 278.886719 168.609375 C 279.03125 168.835938 279.121094 169.101562 279.136719 169.386719 C 279.191406 170.285156 278.503906 171.058594 277.605469 171.113281 Z M 236.539062 176.371094 L 67.765625 197.96875 L 67.757812 197.964844 C 67.429688 198.011719 67.082031 197.949219 66.765625 197.773438 C 65.980469 197.339844 65.699219 196.347656 66.132812 195.5625 L 83.402344 164.519531 C 83.664062 163.984375 84.210938 163.609375 84.84375 163.601562 L 84.984375 163.605469 C 116.324219 165.898438 144.769531 167.84375 170.324219 169.453125 C 195.648438 171.046875 217.65625 172.269531 236.351562 173.128906 C 237.152344 173.136719 237.847656 173.730469 237.949219 174.550781 C 238.0625 175.441406 237.429688 176.257812 236.539062 176.371094 Z M 70.542969 194.328125 L 217.863281 175.476562 C 203.429688 174.726562 187.519531 173.800781 170.125 172.707031 C 145.457031 171.15625 117.34375 169.226562 85.785156 166.921875 L 70.542969 194.328125 " fill-opacity="1" fill-rule="evenodd"/></g></g></g><g clip-path="url(#c57779d629)"><g clip-path="url(#d05c6a249c)"><g clip-path="url(#f663504383)"><path fill="#1e7976" d="M 301.832031 207.164062 C 319.300781 204.816406 328.039062 203.644531 328.039062 203.644531 C 329.285156 191.03125 328.351562 177.609375 325.234375 163.378906 C 307.621094 165.632812 298.8125 166.757812 298.8125 166.757812 C 301.164062 181.609375 302.167969 195.078125 301.832031 207.164062 " fill-opacity="1" fill-rule="evenodd"/></g></g></g><g clip-path="url(#1813b9771f)"><g clip-path="url(#6d8c8f37eb)"><g clip-path="url(#2a2465d847)"><path fill="#2a0303" d="M 328.25 205.261719 L 302.132812 208.769531 C 302.019531 208.789062 301.910156 208.796875 301.789062 208.792969 C 300.886719 208.769531 300.175781 208.023438 300.199219 207.121094 C 300.371094 201.089844 300.207031 194.757812 299.714844 188.113281 C 299.214844 181.460938 298.386719 174.460938 297.226562 167.109375 L 297.195312 166.964844 C 297.082031 166.074219 297.714844 165.257812 298.609375 165.144531 L 325.027344 161.765625 L 325.03125 161.765625 C 325.859375 161.660156 326.640625 162.207031 326.824219 163.03125 C 328.394531 170.222656 329.421875 177.21875 329.894531 184.011719 C 330.363281 190.777344 330.289062 197.34375 329.664062 203.707031 C 329.636719 204.484375 329.046875 205.15625 328.25 205.261719 Z M 303.503906 205.296875 L 326.539062 202.203125 C 327.039062 196.386719 327.082031 190.390625 326.648438 184.226562 C 326.222656 178.054688 325.328125 171.710938 323.960938 165.183594 L 300.675781 168.164062 C 301.722656 175.023438 302.484375 181.597656 302.949219 187.878906 C 303.40625 193.992188 303.59375 199.800781 303.503906 205.296875 " fill-opacity="1" fill-rule="evenodd"/></g></g></g><g clip-path="url(#b450247af9)"><g clip-path="url(#3503f48f4b)"><g clip-path="url(#5e6528225c)"><path fill="#2a0303" d="M 310.445312 165.464844 C 310.226562 164.589844 310.757812 163.707031 311.628906 163.492188 C 312.5 163.277344 313.382812 163.804688 313.601562 164.675781 C 315.453125 172.035156 316.625 179.125 317.117188 185.953125 C 317.609375 192.785156 317.414062 199.34375 316.535156 205.625 C 316.414062 206.519531 315.597656 207.136719 314.707031 207.011719 C 313.820312 206.890625 313.195312 206.070312 313.320312 205.183594 C 314.167969 199.128906 314.351562 192.796875 313.875 186.1875 C 313.398438 179.5625 312.257812 172.65625 310.445312 165.464844 " fill-opacity="1" fill-rule="evenodd"/></g></g></g><g clip-path="url(#c4c725c168)"><g clip-path="url(#84e71ea013)"><g clip-path="url(#f7ea6fe478)"><path fill="#1e7976" d="M 87.394531 235.9375 C 105.503906 233.507812 114.558594 232.292969 114.558594 232.292969 C 109.316406 219.742188 107.472656 205.992188 109.027344 191.046875 C 109.027344 191.046875 99.964844 192.207031 81.835938 194.527344 C 79.511719 209.40625 81.363281 223.207031 87.394531 235.9375 " fill-opacity="1" fill-rule="evenodd"/></g></g></g><g clip-path="url(#1ce8cda57d)"><g clip-path="url(#4b89a24e97)"><g clip-path="url(#3e62be0802)"><path fill="#2a0303" d="M 114.769531 233.90625 L 87.601562 237.550781 C 86.921875 237.640625 86.230469 237.289062 85.921875 236.632812 C 82.832031 230.109375 80.816406 223.316406 79.867188 216.25 C 78.917969 209.191406 79.035156 201.871094 80.222656 194.28125 C 80.335938 193.578125 80.890625 193.003906 81.628906 192.910156 L 108.816406 189.429688 C 108.941406 189.417969 109.0625 189.414062 109.1875 189.429688 C 110.082031 189.519531 110.734375 190.320312 110.644531 191.214844 C 109.878906 198.554688 109.949219 205.601562 110.859375 212.355469 C 111.753906 219.058594 113.476562 225.464844 116.023438 231.570312 C 116.101562 231.730469 116.152344 231.898438 116.171875 232.082031 C 116.289062 232.972656 115.660156 233.789062 114.769531 233.90625 Z M 88.363281 234.164062 L 112.269531 230.960938 C 110.023438 225.140625 108.472656 219.082031 107.628906 212.777344 C 106.773438 206.414062 106.636719 199.792969 107.214844 192.921875 L 83.265625 195.984375 C 82.296875 202.839844 82.242188 209.453125 83.097656 215.828125 C 83.945312 222.171875 85.703125 228.285156 88.363281 234.164062 " fill-opacity="1" fill-rule="evenodd"/></g></g></g><g clip-path="url(#aa4510d3a9)"><g clip-path="url(#116fa00e6f)"><g clip-path="url(#48793a39be)"><path fill="#2a0303" d="M 93.832031 192.5 C 93.988281 191.617188 94.832031 191.027344 95.71875 191.1875 C 96.601562 191.34375 97.1875 192.191406 97.03125 193.074219 C 95.804688 199.890625 95.574219 206.628906 96.316406 213.363281 C 97.054688 220.09375 98.78125 226.835938 101.460938 233.660156 C 101.789062 234.496094 101.378906 235.4375 100.542969 235.769531 C 99.707031 236.097656 98.761719 235.6875 98.429688 234.851562 C 95.644531 227.765625 93.855469 220.746094 93.082031 213.710938 C 92.304688 206.671875 92.550781 199.632812 93.832031 192.5 " fill-opacity="1" fill-rule="evenodd"/></g></g></g><g clip-path="url(#d4f18dfb45)"><g clip-path="url(#31f36a9d25)"><g clip-path="url(#c6b720ce01)"><path fill="#052f32" d="M 283.933594 180.441406 C 290.535156 179.285156 292.898438 197.699219 285.453125 198.9375 C 285.453125 198.9375 229.613281 206.324219 129.953125 220.210938 C 120.421875 221.5625 117.90625 200.40625 128.957031 199.082031 C 227.136719 187.738281 283.933594 180.441406 283.933594 180.441406 " fill-opacity="1" fill-rule="evenodd"/></g></g></g><g clip-path="url(#a526d70893)"><g clip-path="url(#be2b8b9ea6)"><g clip-path="url(#464e6b5421)"><path fill="#2a0303" d="M 287.363281 184.949219 C 286.597656 183.113281 285.488281 181.832031 284.222656 182.042969 L 284.140625 182.058594 C 283.976562 182.074219 227.425781 189.339844 129.167969 200.695312 L 129.144531 200.703125 C 125.871094 201.09375 124.074219 203.78125 123.511719 206.941406 C 123.277344 208.25 123.25 209.648438 123.410156 211.011719 C 123.566406 212.359375 123.910156 213.667969 124.425781 214.820312 C 125.5 217.242188 127.347656 218.933594 129.726562 218.597656 C 229.269531 204.730469 285.078125 197.339844 285.242188 197.324219 C 287.203125 196.957031 288.1875 194.542969 288.394531 191.757812 C 288.480469 190.597656 288.425781 189.378906 288.246094 188.207031 C 288.074219 187.042969 287.773438 185.929688 287.363281 184.949219 Z M 283.710938 178.828125 C 286.746094 178.324219 289.027344 180.492188 290.367188 183.695312 C 290.875 184.917969 291.246094 186.292969 291.460938 187.71875 C 291.675781 189.136719 291.742188 190.601562 291.640625 192.003906 C 291.328125 196.207031 289.5 199.910156 285.714844 200.542969 L 285.664062 200.550781 C 285.503906 200.570312 229.957031 207.921875 130.175781 221.824219 C 126.105469 222.402344 123.101562 219.84375 121.449219 216.148438 C 120.804688 214.691406 120.371094 213.058594 120.175781 211.386719 C 119.976562 209.722656 120.019531 208.003906 120.3125 206.367188 C 121.113281 201.890625 123.789062 198.0625 128.761719 197.46875 L 128.796875 197.464844 C 226.296875 186.195312 282.898438 178.933594 283.710938 178.828125 " fill-opacity="1" fill-rule="evenodd"/></g></g></g><g clip-path="url(#918e861e7b)"><g clip-path="url(#46569e7f9b)"><g clip-path="url(#33d70c3ad4)"><path fill="#052f32" d="M -0.78125 243.742188 L 71.789062 164.265625 L 84.871094 165.230469 L 84.867188 165.230469 L 67.554688 196.355469 C 64.035156 207.90625 66.734375 230.214844 75.34375 237.554688 L 339.972656 202.046875 C 344.15625 199.488281 341.980469 168.980469 338.363281 161.695312 L 334.523438 155.46875 L 345.011719 155.113281 L 374.976562 242.410156 C 219.605469 241.832031 95.515625 242.992188 -0.78125 243.742188 " fill-opacity="1" fill-rule="evenodd"/></g></g></g><g clip-path="url(#d31c2d978c)"><g clip-path="url(#aa9d0a678e)"><g clip-path="url(#f1831b08ad)"><g clip-path="url(#30007376eb)"><path fill="#2a0303" d="M 72.457031 165.945312 L 2.933594 242.085938 L 24.378906 241.917969 C 116.382812 241.179688 231.671875 240.261719 372.695312 240.773438 L 343.867188 156.777344 L 337.378906 157 L 339.746094 160.84375 L 339.820312 160.980469 C 341.839844 165.039062 343.417969 175.738281 343.796875 185.226562 C 344.140625 193.964844 343.355469 201.890625 340.820312 203.4375 C 340.632812 203.554688 340.417969 203.628906 340.183594 203.660156 L 75.554688 239.167969 C 75.113281 239.226562 74.652344 239.105469 74.289062 238.792969 C 69.929688 235.078125 67.007812 227.949219 65.546875 220.207031 C 63.929688 211.648438 64.066406 202.230469 66.003906 195.878906 C 66.035156 195.769531 66.082031 195.664062 66.132812 195.5625 L 82.210938 166.660156 Z M -1.96875 242.628906 L 70.589844 163.167969 C 70.945312 162.78125 71.441406 162.601562 71.929688 162.644531 L 84.988281 163.605469 C 85.886719 163.675781 86.558594 164.453125 86.492188 165.347656 C 86.472656 165.640625 86.375 165.910156 86.222656 166.136719 L 69.0625 196.984375 C 67.316406 202.859375 67.226562 211.597656 68.742188 219.609375 C 70.015625 226.351562 72.40625 232.507812 75.875 235.839844 L 339.316406 200.492188 C 340.546875 199.148438 340.839844 192.671875 340.546875 185.351562 C 340.1875 176.3125 338.757812 166.257812 336.949219 162.507812 L 333.140625 156.320312 C 332.667969 155.558594 332.902344 154.558594 333.667969 154.082031 C 333.945312 153.910156 334.253906 153.832031 334.5625 153.839844 L 344.953125 153.492188 C 345.6875 153.464844 346.324219 153.929688 346.550781 154.585938 L 376.515625 241.878906 C 376.804688 242.730469 376.355469 243.65625 375.503906 243.945312 C 375.328125 244.003906 375.148438 244.035156 374.972656 244.035156 C 232.734375 243.507812 116.816406 244.433594 24.40625 245.171875 L -0.769531 245.367188 C -1.664062 245.375 -2.402344 244.652344 -2.410156 243.757812 C -2.414062 243.316406 -2.242188 242.921875 -1.96875 242.628906 " fill-opacity="1" fill-rule="evenodd"/></g></g></g></g><g clip-path="url(#9908496539)"><g clip-path="url(#63b0538fd5)"><g clip-path="url(#163e504be8)"><path fill="#052f32" d="M -0.78125 243.742188 C 258.597656 242.851562 384.164062 242.40625 374.976562 242.410156 C 376.921875 256.917969 376.398438 271.28125 374.34375 285.503906 C 225.671875 289.820312 101.332031 288.4375 1.320312 281.363281 C -1.722656 267.914062 -2.425781 255.375 -0.78125 243.742188 " fill-opacity="1" fill-rule="evenodd"/></g></g></g><g clip-path="url(#b1d4103bb4)"><g clip-path="url(#2756ca5283)"><g clip-path="url(#812ec858a1)"><g clip-path="url(#780f428222)"><path fill="#2a0303" d="M 287.820312 244.371094 C 225.382812 244.589844 129.617188 244.921875 0.640625 245.363281 C -0.785156 256.859375 0.199219 268.539062 2.648438 279.828125 C 52.277344 283.308594 107.933594 285.390625 169.605469 286.078125 C 231.429688 286.761719 299.207031 286.042969 372.925781 283.921875 C 374.738281 270.691406 375.175781 257.328125 373.542969 244.058594 Z M -0.789062 242.113281 C 128.902344 241.671875 225.132812 241.335938 287.804688 241.113281 C 317.960938 241.003906 346.828125 240.921875 374.484375 240.855469 C 374.632812 240.808594 374.796875 240.78125 374.96875 240.78125 C 374.855469 243.144531 375.6875 245.464844 377.171875 247.257812 C 378.40625 260.109375 377.796875 272.96875 375.953125 285.734375 C 375.839844 286.542969 375.152344 287.125 374.363281 287.128906 C 299.957031 289.289062 231.695312 290.023438 169.570312 289.335938 C 107.402344 288.644531 51.285156 286.527344 1.210938 282.984375 C 0.476562 282.933594 -0.109375 282.402344 -0.265625 281.722656 C -3.097656 269.226562 -4.1875 256.242188 -2.390625 243.519531 C -2.28125 242.710938 -1.585938 242.117188 -0.789062 242.117188 L -0.789062 242.113281 " fill-opacity="1" fill-rule="evenodd"/></g></g></g></g><g clip-path="url(#5920995c02)"><g clip-path="url(#925b13ad93)"><g clip-path="url(#bcf9ed81fa)"><path fill="#c68541" d="M -0.78125 243.742188 L 29.945312 243.636719 C 26.828125 257.734375 26.945312 270.925781 30.316406 283.214844 C 20.433594 282.648438 10.769531 282.03125 1.320312 281.363281 C -1.722656 267.914062 -2.425781 255.375 -0.78125 243.742188 " fill-opacity="1" fill-rule="evenodd"/></g></g></g><g clip-path="url(#d3e9407ea8)"><g clip-path="url(#190f4139ed)"><g clip-path="url(#fb520e1a6d)"><path fill="#2a0303" d="M 27.933594 245.269531 L 0.640625 245.363281 C -0.0117188 250.644531 -0.183594 256.117188 0.132812 261.78125 C 0.460938 267.589844 1.296875 273.601562 2.648438 279.828125 C 6.585938 280.105469 10.957031 280.394531 15.757812 280.699219 C 19.972656 280.96875 24.113281 281.222656 28.179688 281.460938 C 26.828125 275.859375 26.125 270.085938 26.070312 264.125 C 26.011719 258.019531 26.636719 251.730469 27.933594 245.269531 Z M -0.789062 242.113281 L 29.9375 242.007812 C 30.835938 242.003906 31.566406 242.726562 31.570312 243.628906 C 31.574219 243.753906 31.558594 243.871094 31.53125 243.984375 C 30 250.921875 29.261719 257.625 29.324219 264.082031 C 29.382812 270.539062 30.238281 276.777344 31.878906 282.789062 C 32.121094 283.65625 31.601562 284.550781 30.742188 284.785156 C 30.566406 284.835938 30.390625 284.851562 30.226562 284.839844 C 25.121094 284.550781 20.238281 284.253906 15.554688 283.953125 C 11.191406 283.675781 6.40625 283.351562 1.210938 282.984375 C 0.476562 282.933594 -0.109375 282.402344 -0.265625 281.722656 C -1.804688 274.914062 -2.753906 268.332031 -3.113281 261.964844 C -3.46875 255.589844 -3.226562 249.4375 -2.390625 243.519531 C -2.28125 242.710938 -1.585938 242.117188 -0.789062 242.117188 L -0.789062 242.113281 " fill-opacity="1" fill-rule="evenodd"/></g></g></g><g clip-path="url(#5c0a83ca52)"><g clip-path="url(#94b2b528b4)"><g clip-path="url(#c8b2845de1)"><path fill="#c68541" d="M 338.609375 286.441406 C 340.710938 273.410156 341.324219 258.777344 340.449219 242.550781 C 366.472656 242.457031 377.992188 242.40625 374.976562 242.410156 C 376.921875 256.917969 376.398438 271.28125 374.34375 285.503906 C 362.273438 285.855469 350.363281 286.164062 338.609375 286.441406 " fill-opacity="1" fill-rule="evenodd"/></g></g></g><g clip-path="url(#ab8922a0f7)"><g clip-path="url(#330c7e1793)"><g clip-path="url(#e11184b3f3)"><g clip-path="url(#e2fed23b94)"><path fill="#2a0303" d="M 342.273438 265.761719 C 341.996094 272.417969 341.40625 278.75 340.511719 284.769531 C 351.320312 284.511719 362.125 284.230469 372.925781 283.921875 C 374.738281 270.6875 375.175781 257.324219 373.542969 244.050781 L 342.160156 244.171875 C 342.523438 251.726562 342.558594 258.921875 342.273438 265.761719 Z M 337.015625 286.121094 C 339.3125 271.828125 339.605469 257.078125 338.828125 242.640625 C 338.773438 241.746094 339.460938 240.976562 340.359375 240.925781 C 351.691406 240.585938 363.382812 240.835938 374.78125 240.792969 C 375.042969 240.761719 375.359375 240.777344 375.628906 240.777344 C 375.472656 242.867188 375.980469 245.007812 377.125 246.773438 C 378.417969 259.777344 377.820312 272.792969 375.953125 285.734375 C 375.839844 286.542969 375.152344 287.125 374.363281 287.128906 C 362.457031 287.476562 350.554688 287.789062 338.652344 288.070312 C 337.601562 288.09375 336.8125 287.136719 337.015625 286.121094 " fill-opacity="1" fill-rule="evenodd"/></g></g></g></g><g clip-path="url(#079ea40f3d)"><g clip-path="url(#f277faed51)"><g clip-path="url(#4b0fb28d13)"><path fill="#f2dd80" d="M 99.371094 251.664062 C 100.703125 257.105469 101.097656 277.140625 100.113281 277.660156 C 100.113281 277.660156 77.953125 277.085938 41.359375 275.472656 C 39.742188 267.066406 39.800781 259.027344 41.546875 251.359375 C 79.414062 251.535156 99.371094 251.664062 99.371094 251.664062 " fill-opacity="1" fill-rule="evenodd"/></g></g></g><g clip-path="url(#d44427d67f)"><g clip-path="url(#2ac3b7b660)"><g clip-path="url(#391ce38ea1)"><path fill="#2a0303" d="M 98.964844 265.824219 C 98.832031 261.128906 98.511719 256.164062 98.03125 253.28125 C 93.082031 253.253906 74.273438 253.140625 42.855469 252.992188 C 42.191406 256.300781 41.847656 259.683594 41.820312 263.148438 C 41.792969 266.667969 42.09375 270.253906 42.726562 273.902344 C 74.457031 275.296875 95.175781 275.894531 99.363281 276.007812 C 99.347656 275.023438 99.109375 270.679688 98.964844 265.824219 Z M 100.96875 251.375 C 101.625 254.144531 102.058594 260.152344 102.214844 265.734375 C 102.40625 272.308594 101.949219 278.535156 100.871094 279.105469 C 100.617188 279.234375 100.34375 279.292969 100.074219 279.289062 C 100.011719 279.289062 78.082031 278.71875 41.292969 277.097656 C 40.5 277.0625 39.863281 276.46875 39.75 275.714844 C 38.925781 271.417969 38.53125 267.222656 38.5625 263.128906 C 38.589844 259 39.058594 254.957031 39.957031 251.003906 C 40.128906 250.242188 40.800781 249.730469 41.546875 249.730469 C 79.496094 249.90625 99.316406 250.035156 99.378906 250.035156 C 100.175781 250.039062 100.835938 250.617188 100.96875 251.375 " fill-opacity="1" fill-rule="evenodd"/></g></g></g><g clip-path="url(#88ecfd1f1b)"><g clip-path="url(#2ec71094f2)"><g clip-path="url(#6f1f585496)"><path fill="#2a0303" d="M 272.5625 96.1875 C 271.964844 96.160156 271.507812 95.652344 271.53125 95.054688 C 271.558594 94.457031 272.066406 93.992188 272.664062 94.023438 L 333.164062 96.902344 C 333.761719 96.929688 334.226562 97.4375 334.199219 98.035156 C 334.171875 98.632812 333.664062 99.097656 333.066406 99.070312 L 272.5625 96.1875 " fill-opacity="1" fill-rule="evenodd"/></g></g></g><g clip-path="url(#f2134284cc)"><g clip-path="url(#ba6f2a9913)"><g clip-path="url(#05340577df)"><path fill="#2a0303" d="M 293 101.703125 C 292.402344 101.667969 291.949219 101.152344 291.980469 100.554688 C 292.015625 99.957031 292.527344 99.5 293.125 99.53125 L 327.441406 101.511719 C 328.042969 101.550781 328.5 102.0625 328.464844 102.660156 C 328.433594 103.257812 327.917969 103.71875 327.320312 103.683594 L 293 101.703125 " fill-opacity="1" fill-rule="evenodd"/></g></g></g><g clip-path="url(#2c427f750a)"><g clip-path="url(#05e000af16)"><g clip-path="url(#401b8b203e)"><path fill="#2a0303" d="M 127.570312 91.316406 C 126.972656 91.300781 126.503906 90.796875 126.519531 90.203125 C 126.539062 89.605469 127.039062 89.132812 127.636719 89.152344 L 132.136719 89.289062 C 132.738281 89.308594 133.207031 89.808594 133.1875 90.40625 C 133.171875 91.003906 132.671875 91.476562 132.070312 91.457031 L 127.570312 91.316406 " fill-opacity="1" fill-rule="evenodd"/></g></g></g><g clip-path="url(#1036646ce0)"><g clip-path="url(#a6cbc098fc)"><g clip-path="url(#30f2231930)"><path fill="#2a0303" d="M 277.070312 108.988281 C 276.621094 108.589844 276.578125 107.902344 276.976562 107.453125 C 277.375 107.003906 278.0625 106.960938 278.511719 107.359375 L 281.964844 110.421875 C 282.414062 110.820312 282.453125 111.507812 282.054688 111.957031 C 281.65625 112.40625 280.96875 112.445312 280.523438 112.046875 L 277.070312 108.988281 " fill-opacity="1" fill-rule="evenodd"/></g></g></g><g clip-path="url(#5688450802)"><g clip-path="url(#804a251544)"><g clip-path="url(#4faaa0ea25)"><path fill="#2a0303" d="M 250.828125 135.394531 C 250.230469 135.429688 249.714844 134.972656 249.679688 134.375 C 249.644531 133.777344 250.101562 133.257812 250.699219 133.222656 L 252.734375 133.101562 C 253.335938 133.0625 253.847656 133.523438 253.886719 134.121094 C 253.921875 134.71875 253.46875 135.234375 252.863281 135.273438 L 250.828125 135.394531 " fill-opacity="1" fill-rule="evenodd"/></g></g></g><g clip-path="url(#27db95f9b8)"><g clip-path="url(#e58ac3c7c6)"><g clip-path="url(#9dff0c357c)"><path fill="#2a0303" d="M 201.238281 100.667969 C 200.902344 100.171875 201.027344 99.496094 201.523438 99.160156 C 202.019531 98.824219 202.695312 98.949219 203.03125 99.445312 L 204.375 101.40625 C 204.710938 101.898438 204.585938 102.574219 204.089844 102.910156 C 203.597656 103.246094 202.917969 103.121094 202.582031 102.628906 L 201.238281 100.667969 " fill-opacity="1" fill-rule="evenodd"/></g></g></g><g clip-path="url(#f775f44b12)"><g clip-path="url(#74e8eb9a47)"><g clip-path="url(#00dc1e7f9e)"><path fill="#2a0303" d="M 80.898438 125.566406 C 80.308594 125.484375 79.890625 124.9375 79.96875 124.339844 C 80.054688 123.742188 80.601562 123.332031 81.195312 123.410156 L 83.253906 123.695312 C 83.851562 123.777344 84.265625 124.328125 84.183594 124.921875 C 84.105469 125.515625 83.554688 125.933594 82.957031 125.851562 L 80.898438 125.566406 " fill-opacity="1" fill-rule="evenodd"/></g></g></g><g clip-path="url(#998286d1fc)"><g clip-path="url(#43556b8168)"><g clip-path="url(#83959c3757)"><path fill="#2a0303" d="M 165.066406 116.175781 C 164.511719 116.410156 163.875 116.148438 163.640625 115.597656 C 163.414062 115.046875 163.667969 114.410156 164.222656 114.175781 L 165.914062 113.460938 C 166.464844 113.226562 167.101562 113.488281 167.335938 114.039062 C 167.570312 114.589844 167.308594 115.226562 166.757812 115.460938 L 165.066406 116.175781 " fill-opacity="1" fill-rule="evenodd"/></g></g></g><g clip-path="url(#b4f940eaee)"><g clip-path="url(#5820e316a7)"><g clip-path="url(#85346f860e)"><path fill="#2a0303" d="M 341.714844 221.960938 C 341.203125 221.652344 341.039062 220.984375 341.347656 220.472656 C 341.65625 219.960938 342.324219 219.796875 342.835938 220.105469 L 348.347656 223.453125 C 348.859375 223.761719 349.023438 224.429688 348.714844 224.941406 C 348.402344 225.453125 347.738281 225.617188 347.226562 225.304688 L 341.714844 221.960938 " fill-opacity="1" fill-rule="evenodd"/></g></g></g><g clip-path="url(#a62b03b51b)"><g clip-path="url(#af63fedb39)"><g clip-path="url(#44106adff5)"><path fill="#2a0303" d="M 285.609375 221.441406 C 286.117188 221.121094 286.785156 221.277344 287.101562 221.785156 C 287.421875 222.296875 287.265625 222.964844 286.757812 223.28125 L 284.59375 224.636719 C 284.085938 224.949219 283.414062 224.800781 283.097656 224.289062 C 282.785156 223.78125 282.9375 223.113281 283.441406 222.796875 L 285.609375 221.441406 " fill-opacity="1" fill-rule="evenodd"/></g></g></g><g clip-path="url(#3d24a42191)"><g clip-path="url(#80abb8762f)"><g clip-path="url(#5ad4fdd9d3)"><path fill="#2a0303" d="M 53.328125 206.683594 C 52.78125 206.449219 52.523438 205.8125 52.757812 205.261719 C 52.996094 204.710938 53.628906 204.457031 54.179688 204.691406 L 55.855469 205.40625 C 56.40625 205.640625 56.664062 206.277344 56.429688 206.828125 C 56.191406 207.378906 55.558594 207.632812 55.007812 207.398438 L 53.328125 206.683594 " fill-opacity="1" fill-rule="evenodd"/></g></g></g><g clip-path="url(#a9e7447297)"><g clip-path="url(#3921490666)"><g clip-path="url(#8965da85b9)"><path fill="#2a0303" d="M 36.871094 235.640625 C 36.359375 235.957031 35.691406 235.796875 35.375 235.289062 C 35.058594 234.78125 35.21875 234.109375 35.730469 233.796875 L 38.289062 232.210938 C 38.796875 231.898438 39.464844 232.054688 39.78125 232.566406 C 40.097656 233.074219 39.9375 233.742188 39.429688 234.058594 L 36.871094 235.640625 " fill-opacity="1" fill-rule="evenodd"/></g></g></g><g clip-path="url(#e144435b5a)"><g clip-path="url(#f41e7f1d5d)"><g clip-path="url(#8e52133cb0)"><g clip-path="url(#4dde0218c3)"><path fill="#2a0303" d="M 375.742188 248.59375 C 376.34375 248.589844 376.828125 249.074219 376.835938 249.671875 C 376.835938 250.269531 376.355469 250.761719 375.753906 250.761719 L 196.78125 251.691406 C 196.1875 251.691406 195.695312 251.207031 195.691406 250.609375 C 195.6875 250.011719 196.171875 249.523438 196.769531 249.519531 L 375.742188 248.59375 " fill-opacity="1" fill-rule="evenodd"/></g></g></g></g><g clip-path="url(#0f9fbeceb3)"><g clip-path="url(#1522abd3e2)"><g clip-path="url(#ef57b97799)"><path fill="#2a0303" d="M 365.027344 255.34375 C 365.625 255.339844 366.109375 255.828125 366.113281 256.425781 C 366.113281 257.023438 365.628906 257.511719 365.027344 257.515625 L 318.046875 257.476562 C 317.449219 257.480469 316.960938 256.988281 316.960938 256.394531 C 316.957031 255.792969 317.445312 255.308594 318.042969 255.308594 L 365.027344 255.34375 " fill-opacity="1" fill-rule="evenodd"/></g></g></g><g clip-path="url(#89af34a635)"><g clip-path="url(#3ba15cfae9)"><g clip-path="url(#fe6d364a30)"><path fill="#2a0303" d="M 284.003906 268.714844 C 283.40625 268.714844 282.917969 268.230469 282.910156 267.636719 C 282.910156 267.035156 283.390625 266.546875 283.992188 266.542969 L 301.554688 266.511719 C 302.15625 266.503906 302.644531 266.988281 302.644531 267.589844 C 302.648438 268.183594 302.164062 268.675781 301.566406 268.679688 L 284.003906 268.714844 " fill-opacity="1" fill-rule="evenodd"/></g></g></g><g clip-path="url(#f9168f3c48)"><g clip-path="url(#5e917ceabd)"><g clip-path="url(#722d5bbcb6)"><path fill="#2a0303" d="M 296.960938 273.449219 C 296.359375 273.457031 295.871094 272.980469 295.859375 272.378906 C 295.855469 271.78125 296.332031 271.289062 296.929688 271.28125 L 317.34375 271.078125 C 317.945312 271.066406 318.4375 271.546875 318.441406 272.148438 C 318.453125 272.742188 317.972656 273.234375 317.371094 273.246094 L 296.960938 273.449219 " fill-opacity="1" fill-rule="evenodd"/></g></g></g><g clip-path="url(#e5e1df1907)"><g clip-path="url(#96f6daed3a)"><g clip-path="url(#9aea647667)"><path fill="#2a0303" d="M 302.953125 278.121094 C 302.355469 278.117188 301.871094 277.632812 301.871094 277.03125 C 301.875 276.4375 302.359375 275.953125 302.960938 275.949219 L 314.789062 276 C 315.390625 276.003906 315.875 276.488281 315.871094 277.089844 C 315.871094 277.6875 315.378906 278.175781 314.78125 278.171875 L 302.953125 278.121094 " fill-opacity="1" fill-rule="evenodd"/></g></g></g><g clip-path="url(#f76d41e79e)"><g clip-path="url(#7d88be24db)"><g clip-path="url(#f3b5a2abe1)"><path fill="#2a0303" d="M 0.210938 277.207031 C -0.382812 277.1875 -0.851562 276.691406 -0.835938 276.09375 C -0.816406 275.496094 -0.320312 275.027344 0.277344 275.042969 L 32.855469 276.121094 C 33.453125 276.136719 33.921875 276.636719 33.90625 277.238281 C 33.890625 277.835938 33.386719 278.304688 32.789062 278.285156 L 0.210938 277.207031 " fill-opacity="1" fill-rule="evenodd"/></g></g></g><g clip-path="url(#1af930a799)"><g clip-path="url(#06e2013169)"><g clip-path="url(#437ce64fd8)"><path fill="#2a0303" d="M -0.644531 271.976562 C -1.242188 271.953125 -1.707031 271.449219 -1.683594 270.847656 C -1.660156 270.257812 -1.152344 269.789062 -0.554688 269.8125 L 18.648438 270.640625 C 19.246094 270.667969 19.710938 271.171875 19.6875 271.769531 C 19.664062 272.371094 19.15625 272.835938 18.558594 272.8125 L -0.644531 271.976562 " fill-opacity="1" fill-rule="evenodd"/></g></g></g><g clip-path="url(#c5745d209e)"><g clip-path="url(#7848a47e97)"><g clip-path="url(#5b0eaa0d8b)"><path fill="#2a0303" d="M 117.101562 280.78125 C 116.5 280.769531 116.023438 280.269531 116.039062 279.667969 C 116.050781 279.074219 116.550781 278.597656 117.148438 278.605469 L 191.191406 280.285156 C 191.792969 280.300781 192.265625 280.800781 192.253906 281.398438 C 192.246094 281.996094 191.746094 282.472656 191.144531 282.460938 L 117.101562 280.78125 " fill-opacity="1" fill-rule="evenodd"/></g></g></g><g clip-path="url(#dfab0fe805)"><g clip-path="url(#a105030c45)"><g clip-path="url(#e6842eb6e0)"><path fill="#2a0303" d="M 47.632812 140.542969 C 47.03125 140.550781 46.542969 140.0625 46.542969 139.464844 C 46.539062 138.863281 47.019531 138.375 47.621094 138.375 C 62.824219 138.34375 78.953125 138.621094 96.007812 139.203125 C 113.117188 139.777344 131.054688 140.660156 149.828125 141.835938 C 150.425781 141.875 150.882812 142.390625 150.84375 142.988281 C 150.808594 143.585938 150.292969 144.042969 149.695312 144.007812 C 130.792969 142.824219 112.871094 141.941406 95.933594 141.363281 C 78.945312 140.789062 62.84375 140.515625 47.632812 140.542969 " fill-opacity="1" fill-rule="evenodd"/></g></g></g><g clip-path="url(#73bd23bf23)"><g clip-path="url(#1f11d967de)"><g clip-path="url(#effe138768)"><path fill="#2a0303" d="M 160.664062 145.179688 C 160.0625 145.128906 159.625 144.601562 159.675781 144.003906 C 159.730469 143.402344 160.257812 142.964844 160.855469 143.015625 L 190.433594 145.734375 C 191.027344 145.785156 191.472656 146.3125 191.417969 146.914062 C 191.363281 147.511719 190.832031 147.953125 190.238281 147.898438 L 160.664062 145.179688 " fill-opacity="1" fill-rule="evenodd"/></g></g></g></svg>