<svg xmlns="http://www.w3.org/2000/svg" xmlns:xlink="http://www.w3.org/1999/xlink" width="500" zoomAndPan="magnify" viewBox="0 0 375 374.999991" height="500" preserveAspectRatio="xMidYMid meet" version="1.0"><defs><clipPath id="25131acecd"><path d="M 187.5 0 C 83.945312 0 0 83.945312 0 187.5 C 0 291.054688 83.945312 375 187.5 375 C 291.054688 375 375 291.054688 375 187.5 C 375 83.945312 291.054688 0 187.5 0 Z M 187.5 0 " clip-rule="nonzero"/></clipPath><clipPath id="cd36aa90fe"><path d="M 215 33.0625 L 262 33.0625 L 262 99 L 215 99 Z M 215 33.0625 " clip-rule="nonzero"/></clipPath><clipPath id="7d8fc31360"><path d="M 113 33.0625 L 160 33.0625 L 160 99 L 113 99 Z M 113 33.0625 " clip-rule="nonzero"/></clipPath></defs><g clip-path="url(#25131acecd)"><rect x="-37.5" width="450" fill="#f2dd80" y="-37.499999" height="449.999989" fill-opacity="1"/></g><g clip-path="url(#cd36aa90fe)"><path fill="#052f32" d="M 253.984375 35.222656 C 252.789062 33.5 250.425781 33.070312 248.703125 34.265625 C 247.960938 34.777344 247.425781 35.542969 247.195312 36.417969 C 245.464844 42.421875 242.367188 47.941406 238.144531 52.546875 C 232.171875 58.976562 224.246094 63.261719 215.59375 64.734375 L 238.757812 98.855469 C 250.9375 92.363281 259.695312 79.742188 261.554688 65.984375 C 263.039062 55.144531 260.332031 44.140625 253.984375 35.222656 Z M 253.984375 35.222656 " fill-opacity="1" fill-rule="nonzero"/></g><g clip-path="url(#7d8fc31360)"><path fill="#052f32" d="M 121.03125 35.222656 C 122.222656 33.496094 124.585938 33.066406 126.3125 34.253906 C 127.058594 34.769531 127.59375 35.539062 127.824219 36.417969 C 129.554688 42.421875 132.648438 47.941406 136.871094 52.546875 C 142.84375 58.976562 150.765625 63.261719 159.421875 64.734375 L 136.257812 98.855469 C 124.078125 92.363281 115.324219 79.742188 113.464844 65.984375 C 111.980469 55.144531 114.6875 44.140625 121.03125 35.222656 Z M 121.03125 35.222656 " fill-opacity="1" fill-rule="nonzero"/></g><path fill="#052f32" d="M 117.039062 270.128906 L 125.644531 312.242188 C 125.644531 312.242188 106.316406 318.808594 107.207031 330.378906 C 108.097656 341.945312 155.140625 335.085938 162.972656 330.378906 C 170.804688 325.671875 156.429688 291.238281 157.21875 277.179688 C 158.007812 263.125 117.039062 270.128906 117.039062 270.128906 Z M 117.039062 270.128906 " fill-opacity="1" fill-rule="nonzero"/><path fill="#052f32" d="M 257.976562 270.128906 L 249.371094 312.242188 C 249.371094 312.242188 268.699219 318.808594 267.808594 330.378906 C 266.917969 341.945312 219.875 335.085938 212.042969 330.378906 C 204.210938 325.671875 218.585938 291.238281 217.796875 277.179688 C 217.007812 263.125 257.976562 270.128906 257.976562 270.128906 Z M 257.976562 270.128906 " fill-opacity="1" fill-rule="nonzero"/><path fill="#1e7976" d="M 187.507812 40.683594 C 139.3125 40.683594 54.066406 205.671875 71.46875 253.171875 C 88.875 300.671875 187.507812 291.019531 187.507812 291.019531 C 187.507812 291.019531 286.144531 300.664062 303.542969 253.171875 C 320.945312 205.683594 235.703125 40.683594 187.507812 40.683594 Z M 187.507812 40.683594 " fill-opacity="1" fill-rule="nonzero"/><path fill="#ffffff" d="M 171.761719 143.867188 C 171.761719 144.8125 171.714844 145.757812 171.621094 146.699219 C 171.53125 147.640625 171.390625 148.578125 171.207031 149.503906 C 171.027344 150.433594 170.796875 151.351562 170.523438 152.257812 C 170.253906 153.164062 169.9375 154.054688 169.578125 154.929688 C 169.21875 155.804688 168.816406 156.660156 168.371094 157.492188 C 167.929688 158.328125 167.449219 159.140625 166.925781 159.925781 C 166.402344 160.714844 165.84375 161.472656 165.25 162.207031 C 164.652344 162.9375 164.023438 163.636719 163.359375 164.308594 C 162.695312 164.976562 162 165.613281 161.273438 166.210938 C 160.546875 166.8125 159.792969 167.375 159.011719 167.902344 C 158.230469 168.429688 157.425781 168.914062 156.597656 169.363281 C 155.769531 169.808594 154.921875 170.210938 154.050781 170.574219 C 153.183594 170.9375 152.300781 171.253906 151.402344 171.53125 C 150.503906 171.804688 149.59375 172.035156 148.671875 172.21875 C 147.75 172.402344 146.820312 172.542969 145.886719 172.636719 C 144.949219 172.730469 144.015625 172.773438 143.074219 172.773438 C 142.136719 172.773438 141.199219 172.730469 140.261719 172.636719 C 139.328125 172.542969 138.398438 172.402344 137.476562 172.21875 C 136.558594 172.035156 135.644531 171.804688 134.746094 171.53125 C 133.847656 171.253906 132.964844 170.9375 132.097656 170.574219 C 131.230469 170.210938 130.378906 169.808594 129.550781 169.363281 C 128.722656 168.914062 127.917969 168.429688 127.136719 167.902344 C 126.355469 167.375 125.601562 166.8125 124.875 166.210938 C 124.148438 165.613281 123.453125 164.976562 122.789062 164.308594 C 122.125 163.636719 121.496094 162.9375 120.898438 162.207031 C 120.304688 161.472656 119.746094 160.714844 119.222656 159.925781 C 118.703125 159.140625 118.21875 158.328125 117.777344 157.492188 C 117.332031 156.660156 116.933594 155.804688 116.574219 154.929688 C 116.210938 154.054688 115.898438 153.164062 115.625 152.257812 C 115.351562 151.351562 115.125 150.433594 114.941406 149.503906 C 114.757812 148.578125 114.617188 147.640625 114.527344 146.699219 C 114.433594 145.757812 114.390625 144.8125 114.390625 143.867188 C 114.390625 142.917969 114.433594 141.972656 114.527344 141.03125 C 114.617188 140.089844 114.757812 139.15625 114.941406 138.226562 C 115.125 137.296875 115.351562 136.378906 115.625 135.472656 C 115.898438 134.566406 116.210938 133.675781 116.574219 132.800781 C 116.933594 131.929688 117.332031 131.074219 117.777344 130.238281 C 118.21875 129.402344 118.703125 128.59375 119.222656 127.804688 C 119.746094 127.015625 120.304688 126.257812 120.898438 125.527344 C 121.496094 124.792969 122.125 124.09375 122.789062 123.425781 C 123.453125 122.753906 124.148438 122.121094 124.875 121.519531 C 125.601562 120.917969 126.355469 120.355469 127.136719 119.828125 C 127.917969 119.300781 128.722656 118.816406 129.550781 118.371094 C 130.378906 117.921875 131.230469 117.519531 132.097656 117.15625 C 132.964844 116.792969 133.847656 116.476562 134.746094 116.203125 C 135.644531 115.925781 136.558594 115.695312 137.476562 115.511719 C 138.398438 115.328125 139.328125 115.1875 140.261719 115.097656 C 141.199219 115.003906 142.136719 114.957031 143.074219 114.957031 C 144.015625 114.957031 144.949219 115.003906 145.886719 115.097656 C 146.820312 115.1875 147.75 115.328125 148.671875 115.511719 C 149.59375 115.695312 150.503906 115.925781 151.402344 116.203125 C 152.300781 116.476562 153.183594 116.792969 154.050781 117.15625 C 154.921875 117.519531 155.769531 117.921875 156.597656 118.371094 C 157.425781 118.816406 158.230469 119.300781 159.011719 119.828125 C 159.792969 120.355469 160.546875 120.917969 161.273438 121.519531 C 162 122.121094 162.695312 122.753906 163.359375 123.425781 C 164.023438 124.09375 164.652344 124.792969 165.25 125.527344 C 165.84375 126.257812 166.402344 127.015625 166.925781 127.804688 C 167.449219 128.59375 167.929688 129.402344 168.371094 130.238281 C 168.816406 131.074219 169.21875 131.929688 169.578125 132.800781 C 169.9375 133.675781 170.253906 134.566406 170.523438 135.472656 C 170.796875 136.378906 171.027344 137.296875 171.207031 138.226562 C 171.390625 139.15625 171.53125 140.089844 171.621094 141.03125 C 171.714844 141.972656 171.761719 142.917969 171.761719 143.867188 Z M 171.761719 143.867188 " fill-opacity="1" fill-rule="nonzero"/><path fill="#000000" d="M 167.4375 136.433594 C 167.4375 137.253906 167.359375 138.066406 167.199219 138.871094 C 167.039062 139.675781 166.804688 140.457031 166.492188 141.21875 C 166.183594 141.976562 165.800781 142.695312 165.347656 143.378906 C 164.894531 144.058594 164.382812 144.691406 163.804688 145.269531 C 163.230469 145.851562 162.605469 146.367188 161.925781 146.824219 C 161.25 147.28125 160.535156 147.664062 159.785156 147.980469 C 159.03125 148.292969 158.257812 148.53125 157.457031 148.691406 C 156.660156 148.851562 155.851562 148.929688 155.039062 148.929688 C 154.226562 148.929688 153.417969 148.851562 152.621094 148.691406 C 151.820312 148.53125 151.046875 148.292969 150.292969 147.980469 C 149.542969 147.664062 148.828125 147.28125 148.148438 146.824219 C 147.472656 146.367188 146.847656 145.851562 146.273438 145.269531 C 145.695312 144.691406 145.183594 144.058594 144.730469 143.378906 C 144.277344 142.695312 143.894531 141.976562 143.582031 141.21875 C 143.273438 140.457031 143.035156 139.675781 142.878906 138.871094 C 142.71875 138.066406 142.640625 137.253906 142.640625 136.433594 C 142.640625 135.613281 142.71875 134.800781 142.878906 133.996094 C 143.035156 133.191406 143.273438 132.410156 143.582031 131.652344 C 143.894531 130.894531 144.277344 130.175781 144.730469 129.492188 C 145.183594 128.808594 145.695312 128.179688 146.273438 127.597656 C 146.847656 127.019531 147.472656 126.5 148.148438 126.046875 C 148.828125 125.589844 149.542969 125.203125 150.292969 124.890625 C 151.046875 124.578125 151.820312 124.339844 152.621094 124.179688 C 153.417969 124.019531 154.226562 123.9375 155.039062 123.9375 C 155.851562 123.9375 156.660156 124.019531 157.457031 124.179688 C 158.257812 124.339844 159.03125 124.578125 159.785156 124.890625 C 160.535156 125.203125 161.25 125.589844 161.925781 126.046875 C 162.605469 126.5 163.230469 127.019531 163.804688 127.597656 C 164.382812 128.179688 164.894531 128.808594 165.347656 129.492188 C 165.800781 130.175781 166.183594 130.894531 166.492188 131.652344 C 166.804688 132.410156 167.039062 133.191406 167.199219 133.996094 C 167.359375 134.800781 167.4375 135.613281 167.4375 136.433594 Z M 167.4375 136.433594 " fill-opacity="1" fill-rule="nonzero"/><path fill="#ffffff" d="M 162.574219 132.28125 C 162.574219 132.558594 162.546875 132.832031 162.496094 133.105469 C 162.441406 133.375 162.359375 133.640625 162.257812 133.894531 C 162.152344 134.152344 162.019531 134.394531 161.867188 134.625 C 161.714844 134.855469 161.542969 135.070312 161.347656 135.265625 C 161.152344 135.460938 160.941406 135.636719 160.710938 135.789062 C 160.484375 135.945312 160.242188 136.074219 159.988281 136.179688 C 159.734375 136.289062 159.472656 136.367188 159.199219 136.421875 C 158.929688 136.476562 158.660156 136.503906 158.382812 136.503906 C 158.109375 136.503906 157.835938 136.476562 157.566406 136.421875 C 157.296875 136.367188 157.03125 136.289062 156.777344 136.179688 C 156.523438 136.074219 156.28125 135.945312 156.054688 135.789062 C 155.824219 135.636719 155.613281 135.460938 155.417969 135.265625 C 155.222656 135.070312 155.050781 134.855469 154.898438 134.625 C 154.746094 134.394531 154.617188 134.152344 154.511719 133.894531 C 154.40625 133.640625 154.324219 133.375 154.273438 133.105469 C 154.21875 132.832031 154.191406 132.558594 154.191406 132.28125 C 154.191406 132.003906 154.21875 131.730469 154.273438 131.457031 C 154.324219 131.1875 154.40625 130.921875 154.511719 130.664062 C 154.617188 130.410156 154.746094 130.167969 154.898438 129.9375 C 155.050781 129.707031 155.222656 129.492188 155.417969 129.296875 C 155.613281 129.101562 155.824219 128.925781 156.054688 128.769531 C 156.28125 128.617188 156.523438 128.488281 156.777344 128.378906 C 157.03125 128.273438 157.296875 128.195312 157.566406 128.140625 C 157.835938 128.085938 158.109375 128.058594 158.382812 128.058594 C 158.660156 128.058594 158.929688 128.085938 159.199219 128.140625 C 159.472656 128.195312 159.734375 128.273438 159.988281 128.378906 C 160.242188 128.488281 160.484375 128.617188 160.710938 128.769531 C 160.941406 128.925781 161.152344 129.101562 161.347656 129.296875 C 161.542969 129.492188 161.714844 129.707031 161.867188 129.9375 C 162.019531 130.167969 162.152344 130.410156 162.257812 130.664062 C 162.359375 130.921875 162.441406 131.1875 162.496094 131.457031 C 162.546875 131.730469 162.574219 132.003906 162.574219 132.28125 Z M 162.574219 132.28125 " fill-opacity="1" fill-rule="nonzero"/><path fill="#ffffff" d="M 260.625 143.867188 C 260.625 144.8125 260.578125 145.757812 260.488281 146.699219 C 260.394531 147.640625 260.257812 148.578125 260.074219 149.503906 C 259.890625 150.433594 259.664062 151.351562 259.390625 152.257812 C 259.117188 153.164062 258.800781 154.054688 258.441406 154.929688 C 258.082031 155.804688 257.679688 156.660156 257.238281 157.492188 C 256.796875 158.328125 256.3125 159.140625 255.792969 159.925781 C 255.269531 160.714844 254.710938 161.472656 254.113281 162.207031 C 253.519531 162.9375 252.886719 163.636719 252.222656 164.308594 C 251.558594 164.976562 250.863281 165.613281 250.136719 166.210938 C 249.410156 166.8125 248.660156 167.375 247.878906 167.902344 C 247.097656 168.429688 246.292969 168.914062 245.460938 169.363281 C 244.632812 169.808594 243.785156 170.210938 242.917969 170.574219 C 242.050781 170.9375 241.167969 171.253906 240.265625 171.53125 C 239.367188 171.804688 238.457031 172.035156 237.535156 172.21875 C 236.613281 172.402344 235.6875 172.542969 234.75 172.636719 C 233.816406 172.730469 232.878906 172.773438 231.941406 172.773438 C 231 172.773438 230.0625 172.730469 229.128906 172.636719 C 228.195312 172.542969 227.265625 172.402344 226.34375 172.21875 C 225.421875 172.035156 224.511719 171.804688 223.613281 171.53125 C 222.714844 171.253906 221.832031 170.9375 220.960938 170.574219 C 220.09375 170.210938 219.246094 169.808594 218.417969 169.363281 C 217.589844 168.914062 216.785156 168.429688 216.003906 167.902344 C 215.222656 167.375 214.46875 166.8125 213.742188 166.210938 C 213.015625 165.613281 212.320312 164.976562 211.65625 164.308594 C 210.992188 163.636719 210.363281 162.9375 209.765625 162.207031 C 209.167969 161.472656 208.609375 160.714844 208.089844 159.925781 C 207.566406 159.140625 207.085938 158.328125 206.640625 157.492188 C 206.199219 156.660156 205.796875 155.804688 205.4375 154.929688 C 205.078125 154.054688 204.761719 153.164062 204.488281 152.257812 C 204.21875 151.351562 203.988281 150.433594 203.804688 149.503906 C 203.621094 148.578125 203.484375 147.640625 203.394531 146.699219 C 203.300781 145.757812 203.253906 144.8125 203.253906 143.867188 C 203.253906 142.917969 203.300781 141.972656 203.394531 141.03125 C 203.484375 140.089844 203.621094 139.15625 203.804688 138.226562 C 203.988281 137.296875 204.21875 136.378906 204.488281 135.472656 C 204.761719 134.566406 205.078125 133.675781 205.4375 132.800781 C 205.796875 131.929688 206.199219 131.074219 206.640625 130.238281 C 207.085938 129.402344 207.566406 128.59375 208.089844 127.804688 C 208.609375 127.015625 209.167969 126.257812 209.765625 125.527344 C 210.363281 124.792969 210.992188 124.09375 211.65625 123.425781 C 212.320312 122.753906 213.015625 122.121094 213.742188 121.519531 C 214.46875 120.917969 215.222656 120.355469 216.003906 119.828125 C 216.785156 119.300781 217.589844 118.816406 218.417969 118.371094 C 219.246094 117.921875 220.09375 117.519531 220.960938 117.15625 C 221.832031 116.792969 222.714844 116.476562 223.613281 116.203125 C 224.511719 115.925781 225.421875 115.695312 226.34375 115.511719 C 227.265625 115.328125 228.195312 115.1875 229.128906 115.097656 C 230.0625 115.003906 231 114.957031 231.941406 114.957031 C 232.878906 114.957031 233.816406 115.003906 234.75 115.097656 C 235.6875 115.1875 236.613281 115.328125 237.535156 115.511719 C 238.457031 115.695312 239.367188 115.925781 240.265625 116.203125 C 241.167969 116.476562 242.050781 116.792969 242.917969 117.15625 C 243.785156 117.519531 244.632812 117.921875 245.460938 118.371094 C 246.292969 118.816406 247.097656 119.300781 247.878906 119.828125 C 248.660156 120.355469 249.410156 120.917969 250.136719 121.519531 C 250.863281 122.121094 251.558594 122.753906 252.222656 123.425781 C 252.886719 124.09375 253.519531 124.792969 254.113281 125.527344 C 254.710938 126.257812 255.269531 127.015625 255.792969 127.804688 C 256.3125 128.59375 256.796875 129.402344 257.238281 130.238281 C 257.679688 131.074219 258.082031 131.929688 258.441406 132.800781 C 258.800781 133.675781 259.117188 134.566406 259.390625 135.472656 C 259.664062 136.378906 259.890625 137.296875 260.074219 138.226562 C 260.257812 139.15625 260.394531 140.089844 260.488281 141.03125 C 260.578125 141.972656 260.625 142.917969 260.625 143.867188 Z M 260.625 143.867188 " fill-opacity="1" fill-rule="nonzero"/><path fill="#000000" d="M 232.375 136.433594 C 232.375 137.253906 232.296875 138.066406 232.136719 138.871094 C 231.976562 139.675781 231.742188 140.457031 231.429688 141.21875 C 231.121094 141.976562 230.738281 142.695312 230.285156 143.378906 C 229.832031 144.058594 229.320312 144.691406 228.742188 145.269531 C 228.167969 145.851562 227.542969 146.367188 226.863281 146.824219 C 226.1875 147.28125 225.472656 147.664062 224.71875 147.980469 C 223.96875 148.292969 223.191406 148.53125 222.394531 148.691406 C 221.597656 148.851562 220.789062 148.929688 219.976562 148.929688 C 219.160156 148.929688 218.355469 148.851562 217.558594 148.691406 C 216.757812 148.53125 215.984375 148.292969 215.230469 147.980469 C 214.480469 147.664062 213.765625 147.28125 213.085938 146.824219 C 212.410156 146.367188 211.785156 145.851562 211.207031 145.269531 C 210.632812 144.691406 210.117188 144.058594 209.667969 143.378906 C 209.214844 142.695312 208.832031 141.976562 208.519531 141.21875 C 208.210938 140.457031 207.972656 139.675781 207.816406 138.871094 C 207.65625 138.066406 207.578125 137.253906 207.578125 136.433594 C 207.578125 135.613281 207.65625 134.800781 207.816406 133.996094 C 207.972656 133.191406 208.210938 132.410156 208.519531 131.652344 C 208.832031 130.894531 209.214844 130.175781 209.667969 129.492188 C 210.117188 128.808594 210.632812 128.179688 211.207031 127.597656 C 211.785156 127.019531 212.410156 126.5 213.085938 126.046875 C 213.765625 125.589844 214.480469 125.203125 215.230469 124.890625 C 215.984375 124.578125 216.757812 124.339844 217.558594 124.179688 C 218.355469 124.019531 219.160156 123.9375 219.976562 123.9375 C 220.789062 123.9375 221.597656 124.019531 222.394531 124.179688 C 223.191406 124.339844 223.96875 124.578125 224.71875 124.890625 C 225.472656 125.203125 226.1875 125.589844 226.863281 126.046875 C 227.542969 126.5 228.167969 127.019531 228.742188 127.597656 C 229.320312 128.179688 229.832031 128.808594 230.285156 129.492188 C 230.738281 130.175781 231.121094 130.894531 231.429688 131.652344 C 231.742188 132.410156 231.976562 133.191406 232.136719 133.996094 C 232.296875 134.800781 232.375 135.613281 232.375 136.433594 Z M 232.375 136.433594 " fill-opacity="1" fill-rule="nonzero"/><path fill="#ffffff" d="M 220.824219 132.28125 C 220.824219 132.558594 220.796875 132.832031 220.742188 133.105469 C 220.6875 133.375 220.609375 133.640625 220.503906 133.894531 C 220.398438 134.152344 220.269531 134.394531 220.117188 134.625 C 219.964844 134.855469 219.789062 135.070312 219.597656 135.265625 C 219.402344 135.460938 219.1875 135.636719 218.960938 135.789062 C 218.730469 135.945312 218.488281 136.074219 218.234375 136.179688 C 217.980469 136.289062 217.71875 136.367188 217.449219 136.421875 C 217.179688 136.476562 216.90625 136.503906 216.632812 136.503906 C 216.355469 136.503906 216.082031 136.476562 215.8125 136.421875 C 215.542969 136.367188 215.28125 136.289062 215.027344 136.179688 C 214.773438 136.074219 214.53125 135.945312 214.300781 135.789062 C 214.074219 135.636719 213.863281 135.460938 213.667969 135.265625 C 213.472656 135.070312 213.300781 134.855469 213.144531 134.625 C 212.992188 134.394531 212.863281 134.152344 212.757812 133.894531 C 212.652344 133.640625 212.574219 133.375 212.519531 133.105469 C 212.464844 132.832031 212.441406 132.558594 212.441406 132.28125 C 212.441406 132.003906 212.464844 131.730469 212.519531 131.457031 C 212.574219 131.1875 212.652344 130.921875 212.757812 130.664062 C 212.863281 130.410156 212.992188 130.167969 213.144531 129.9375 C 213.300781 129.707031 213.472656 129.492188 213.667969 129.296875 C 213.863281 129.101562 214.074219 128.925781 214.300781 128.769531 C 214.53125 128.617188 214.773438 128.488281 215.027344 128.378906 C 215.28125 128.273438 215.542969 128.195312 215.8125 128.140625 C 216.082031 128.085938 216.355469 128.058594 216.632812 128.058594 C 216.90625 128.058594 217.179688 128.085938 217.449219 128.140625 C 217.71875 128.195312 217.980469 128.273438 218.234375 128.378906 C 218.488281 128.488281 218.730469 128.617188 218.960938 128.769531 C 219.1875 128.925781 219.402344 129.101562 219.597656 129.296875 C 219.789062 129.492188 219.964844 129.707031 220.117188 129.9375 C 220.269531 130.167969 220.398438 130.410156 220.503906 130.664062 C 220.609375 130.921875 220.6875 131.1875 220.742188 131.457031 C 220.796875 131.730469 220.824219 132.003906 220.824219 132.28125 Z M 220.824219 132.28125 " fill-opacity="1" fill-rule="nonzero"/><path fill="#1e7976" d="M 271.566406 137.726562 C 271.566406 137.726562 296.9375 150.097656 295.632812 155.066406 C 294.332031 160.035156 287.199219 155.066406 287.199219 155.066406 C 287.199219 155.066406 299.523438 168.222656 296.230469 171.144531 C 292.941406 174.0625 279.328125 156.71875 279.328125 156.71875 Z M 271.566406 137.726562 " fill-opacity="1" fill-rule="nonzero"/><path fill="#1e7976" d="M 300.363281 213.265625 C 300.363281 213.265625 319.09375 228.679688 315.460938 233.507812 C 311.832031 238.335938 308.148438 235.730469 308.148438 235.730469 C 308.148438 235.730469 317.675781 246.160156 313.480469 249.53125 C 309.285156 252.90625 308.148438 249.53125 308.148438 249.53125 C 308.148438 249.53125 313.792969 264.433594 308.148438 266.777344 C 302.507812 269.121094 301.996094 264.265625 301.996094 264.265625 C 301.996094 264.265625 294.695312 289.597656 287.199219 288.753906 C 279.699219 287.910156 280.066406 276.042969 280.066406 276.042969 Z M 300.363281 213.265625 " fill-opacity="1" fill-rule="nonzero"/><path fill="#1e7976" d="M 290.933594 180.941406 C 290.933594 180.941406 307.863281 193.09375 307.058594 197.890625 C 306.253906 202.683594 296.230469 197.890625 296.230469 197.890625 Z M 290.933594 180.941406 " fill-opacity="1" fill-rule="nonzero"/><path fill="#1e7976" d="M 103.449219 137.726562 C 103.449219 137.726562 78.0625 150.097656 79.382812 155.066406 C 80.703125 160.035156 87.816406 155.066406 87.816406 155.066406 C 87.816406 155.066406 75.492188 168.222656 78.78125 171.144531 C 82.070312 174.0625 95.683594 156.71875 95.683594 156.71875 Z M 103.449219 137.726562 " fill-opacity="1" fill-rule="nonzero"/><path fill="#1e7976" d="M 74.648438 213.265625 C 74.648438 213.265625 55.921875 228.683594 59.550781 233.507812 C 63.183594 238.332031 66.863281 235.730469 66.863281 235.730469 C 66.863281 235.730469 57.335938 246.160156 61.535156 249.53125 C 65.730469 252.90625 66.863281 249.53125 66.863281 249.53125 C 66.863281 249.53125 61.222656 264.433594 66.863281 266.777344 C 72.507812 269.121094 73 264.265625 73 264.265625 C 73 264.265625 80.316406 289.597656 87.816406 288.753906 C 95.3125 287.910156 94.929688 276.042969 94.929688 276.042969 Z M 74.648438 213.265625 " fill-opacity="1" fill-rule="nonzero"/><path fill="#1e7976" d="M 84.078125 180.941406 C 84.078125 180.941406 67.152344 193.09375 67.941406 197.890625 C 68.730469 202.683594 78.765625 197.890625 78.765625 197.890625 Z M 84.078125 180.941406 " fill-opacity="1" fill-rule="nonzero"/><path fill="#ffffff" d="M 123.15625 180.222656 L 125 174.207031 L 186.894531 192.941406 L 253.832031 170.847656 L 253.832031 185.726562 L 194.402344 212.644531 L 121.183594 190.394531 Z M 123.15625 180.222656 " fill-opacity="1" fill-rule="nonzero"/><path fill="#c68541" d="M 187.507812 196.578125 L 187.507812 282.472656 L 117.054688 257.324219 L 117.054688 175.300781 Z M 187.507812 196.578125 " fill-opacity="1" fill-rule="nonzero"/><path fill="#c68541" d="M 187.507812 196.578125 L 187.507812 282.472656 L 257.960938 257.324219 L 257.960938 175.300781 Z M 187.507812 196.578125 " fill-opacity="1" fill-rule="nonzero"/><path fill="#ffffff" d="M 181.351562 221.917969 L 127.035156 205.964844 L 127.035156 188.636719 L 181.351562 204.59375 Z M 181.351562 221.917969 " fill-opacity="1" fill-rule="nonzero"/><path fill="#1e7976" d="M 108.816406 219.265625 C 108.816406 219.265625 128.101562 198.660156 138.230469 206.941406 C 148.355469 215.226562 117.5625 244.949219 110.359375 247.183594 C 103.15625 249.417969 108.816406 219.265625 108.816406 219.265625 Z M 108.816406 219.265625 " fill-opacity="1" fill-rule="nonzero"/><path fill="#1e7976" d="M 266.195312 219.265625 C 266.195312 219.265625 246.910156 198.660156 236.785156 206.9375 C 226.660156 215.21875 257.449219 244.945312 264.652344 247.179688 C 271.855469 249.414062 266.195312 219.265625 266.195312 219.265625 Z M 266.195312 219.265625 " fill-opacity="1" fill-rule="nonzero"/><path fill="#ffffff" d="M 191.722656 164.523438 C 191.722656 164.523438 191.765625 154.472656 193.09375 154.597656 C 194.421875 154.726562 197.734375 162.464844 197.734375 162.464844 Z M 191.722656 164.523438 " fill-opacity="1" fill-rule="nonzero"/><path fill="#000000" d="M 199.226562 161.695312 C 198.992188 161.222656 198.414062 161.035156 197.941406 161.269531 C 197.9375 161.269531 197.933594 161.273438 197.933594 161.273438 C 186.199219 167.316406 177.5625 161.59375 177.1875 161.335938 C 176.75 161.039062 176.148438 161.148438 175.851562 161.585938 C 175.851562 161.585938 175.847656 161.589844 175.847656 161.589844 C 175.546875 162.035156 175.660156 162.636719 176.101562 162.941406 C 176.359375 163.121094 180.617188 165.976562 187.179688 165.976562 C 191.238281 165.933594 195.230469 164.914062 198.808594 163.003906 C 199.285156 162.753906 199.472656 162.171875 199.226562 161.695312 Z M 199.226562 161.695312 " fill-opacity="1" fill-rule="nonzero"/></svg>